<svg xmlns="http://www.w3.org/2000/svg" xmlns:xlink="http://www.w3.org/1999/xlink" xmlns:inkscape="http://www.inkscape.org/namespaces/inkscape" version="1.1" width="332" height="155" viewBox="0 0 332 155">
<defs>
<path id="font_1_2" d="M.5 .40376283C.49899293 .4067688 .49499513 .4147644 .49499513 .41775514 .49499513 .4187622 .49598695 .41975404 .5130005 .43273927L.6100006 .5086975C.74398806 .6126404 .7879944 .6476135 .8569946 .6536102 .8639984 .65460208 .8739929 .65460208 .8739929 .6716156 .8739929 .6776123 .87098696 .6826172 .86299136 .6826172 .85198977 .6826172 .83999636 .680603 .82899478 .680603H.79100039C.7599945 .680603 .72698977 .6826172 .69699099 .6826172 .6899872 .6826172 .6779938 .6826172 .6779938 .6646118 .6779938 .65460208 .68499758 .6536102 .69099429 .6536102 .70199587 .6526184 .71499636 .6486206 .71499636 .6346283 .71499636 .6146393 .68499758 .59065249 .6769867 .58465579L.2849884 .2798462 .36799623 .6096344C.3769989 .6436157 .3789978 .6536102 .44999696 .6536102 .46899415 .6536102 .47799684 .6536102 .47799684 .6726074 .47799684 .6826172 .46798707 .6826172 .46299745 .6826172 .44499208 .6826172 .42399598 .680603 .40499879 .680603H.2869873C.2689972 .680603 .24699402 .6826172 .22898865 .6826172 .22099304 .6826172 .20999146 .6826172 .20999146 .66360476 .20999146 .6536102 .21899414 .6536102 .23399353 .6536102 .29499818 .6536102 .29499818 .6456146 .29499818 .6346283 .29499818 .6326294 .29499818 .6266327 .29100038 .6116333L.1559906 .07395935C.14698792 .038986207 .14498902 .0289917 .07499695 .0289917 .055999757 .0289917 .04598999 .0289917 .04598999 .010986328 .04598999 0 .054992677 0 .06098938 0 .07998657 0 .099990848 .0019989014 .11898804 .0019989014H.23599243C.25498963 .0019989014 .27598573 0 .29499818 0 .30299378 0 .31399537 0 .31399537 .018997193 .31399537 .0289917 .30499269 .0289917 .2899933 .0289917 .22898865 .0289917 .22898865 .036987306 .22898865 .04698181 .22898865 .053970338 .23498535 .07896423 .23899842 .094955448L.27799989 .24986267 .42999269 .36878968C.45899964 .30482484 .5119934 .17689514 .5529938 .07896423 .55599978 .07296753 .55799868 .066970828 .55799868 .05996704 .55799868 .02999878 .5179901 .0289917 .5089874 .0289917 .5 .0289917 .48999024 .0289917 .48999024 .009994507 .48999024 0 .5009918 0 .5039978 0 .5389862 0 .57598879 .0019989014 .61099246 .0019989014H.6589966C.673996 .0019989014 .69099429 0 .70599368 0 .71199038 0 .72299197 0 .72299197 .018997193 .72299197 .0289917 .71398928 .0289917 .70399478 .0289917 .6669922 .02999878 .6539917 .037994386 .6389923 .07395935L.5 .40376283Z"/>
<path id="font_2_4" d="M.6749878 .32421876C.68899539 .32421876 .70700076 .32421876 .70700076 .34220887 .70700076 .36120606 .6899872 .36120606 .6749878 .36120606H.085998538C.07199097 .36120606 .053985597 .36120606 .053985597 .34321595 .053985597 .32421876 .070999149 .32421876 .085998538 .32421876H.6749878M.6749878 .13780213C.68899539 .13780213 .70700076 .13780213 .70700076 .15579224 .70700076 .17480469 .6899872 .17480469 .6749878 .17480469H.085998538C.07199097 .17480469 .053985597 .17480469 .053985597 .15679932 .053985597 .13780213 .070999149 .13780213 .085998538 .13780213H.6749878Z"/>
<path id="font_3_1" d="M.2679901 .31362916H.3039856L.45399476 .08192444C.46398927 .06594849 .48799134 .026992798 .49899293 .011993408 .5059967 0 .5089874 0 .5319977 0H.66999819C.6879883 0 .7029877 0 .7029877 .017990113 .7029877 .025985718 .69699099 .032989503 .6879883 .034988405 .651001 .04298401 .60198977 .10890198 .5779877 .14085388 .57099917 .15083313 .5209961 .2167511 .45399476 .32463075 .54299929 .34062196 .6289978 .37861634 .6289978 .4975891 .6289978 .63656619 .48199464 .6845703 .3639984 .6845703H.049987794C.03199768 .6845703 .015991211 .6845703 .015991211 .66656497 .015991211 .64956668 .034988405 .64956668 .042999269 .64956668 .099990848 .64956668 .10499573 .64256289 .10499573 .5925751V.091918949C.10499573 .04197693 .099990848 .034988405 .042999269 .034988405 .034988405 .034988405 .015991211 .034988405 .015991211 .017990113 .015991211 0 .03199768 0 .049987794 0H.32398988C.34199525 0 .35699464 0 .35699464 .017990113 .35699464 .034988405 .33999635 .034988405 .32899476 .034988405 .27198792 .034988405 .2679901 .04298401 .2679901 .091918949V.31362916M.46099855 .36262513C.4889984 .39961244 .49198915 .4526062 .49198915 .4965973 .49198915 .5445862 .48599244 .59757998 .45399476 .63856509 .49499513 .6295624 .59399417 .5985718 .59399417 .4975891 .59399417 .43260194 .56399539 .3816223 .46099855 .36262513M.2679901 .59558108C.2679901 .61657717 .2679901 .64956668 .32998658 .64956668 .4149933 .64956668 .45700074 .614563 .45700074 .4965973 .45700074 .36761476 .42599488 .3486328 .2679901 .3486328V.59558108M.13198853 .034988405C.13999939 .052963258 .13999939 .08093262 .13999939 .089920047V.594574C.13999939 .6045685 .13999939 .6315613 .13198853 .64956668H.24598694C.23298645 .6335602 .23298645 .61357119 .23298645 .5985718V.089920047C.23298645 .079940799 .23298645 .052963258 .24099732 .034988405H.13198853M.34498597 .31362916C.35198976 .31462098 .35598756 .31562806 .3639984 .31562806 .3789978 .31562806 .40098573 .31762696 .41600038 .31962586 .43099977 .2956543 .5389862 .117889408 .621994 .034988405H.5249939L.34498597 .31362916Z"/>
<path id="font_2_1" d="M.32499696-.24298096C.32499696-.23999024 .32499696-.23799134 .30799867-.22097779 .20799256-.11997986 .1519928 .045013429 .1519928 .24900818 .1519928 .44299317 .19898987 .60998538 .31498719 .7279968 .32499696 .7369995 .32499696 .7389984 .32499696 .74198916 .32499696 .74798586 .31999208 .75 .31599427 .75 .30299378 .75 .22099304 .6779938 .17199707 .5799866 .12098694 .47898866 .09799194 .37199403 .09799194 .24900818 .09799194 .16000366 .11199951 .041015626 .1639862-.06599426 .22299195-.18598938 .30499269-.25097657 .31599427-.25097657 .31999208-.25097657 .32499696-.24897766 .32499696-.24298096Z"/>
<path id="font_1_3" d="M.47399903 .40820313C.44198609 .40219117 .42999269 .3781891 .42999269 .3591919 .42999269 .33518983 .44898988 .3271942 .46299745 .3271942 .49299623 .3271942 .5139923 .3531952 .5139923 .380188 .5139923 .4223938 .46598817 .44140626 .42399598 .44140626 .36299134 .44140626 .32899476 .38119508 .31999208 .36219789 .29699708 .4373932 .23498535 .44140626 .21699524 .44140626 .114990238 .44140626 .06098938 .31021119 .06098938 .28822328 .06098938 .28422547 .06498718 .27923585 .07199097 .27923585 .07998657 .27923585 .08198547 .28523255 .083999637 .2892151 .117996219 .40019227 .18499756 .42140199 .21398926 .42140199 .25898744 .42140199 .2679901 .37919618 .2679901 .3551941 .2679901 .33319093 .2619934 .31021119 .25 .26223756L.21598816 .12535095C.20098877 .06535339 .17199707 .010223389 .11898804 .010223389 .11399841 .010223389 .08898926 .010223389 .067993167 .023330689 .10398865 .03036499 .11199951 .06036377 .11199951 .07235718 .11199951 .09236145 .09700012 .10435486 .07798767 .10435486 .053985597 .10435486 .027999878 .083358768 .027999878 .051361085 .027999878 .009231567 .07499695-.009765625 .117996219-.009765625 .1659851-.009765625 .19999695 .028366089 .22099304 .069366458 .23699951 .010223389 .2869873-.009765625 .32398988-.009765625 .42599488-.009765625 .47999574 .12135315 .47999574 .1433258 .47999574 .14833069 .47599793 .15232849 .46998597 .15232849 .46099855 .15232849 .45999146 .14732361 .45700074 .139328 .42999269 .051361085 .37199403 .010223389 .32699586 .010223389 .2919922 .010223389 .272995 .036361696 .272995 .07736206 .272995 .099365238 .2769928 .115356449 .29299928 .18130493L.32798768 .3171997C.34298707 .37719728 .3769989 .42140199 .4229889 .42140199 .4249878 .42140199 .45298768 .42140199 .47399903 .40820313Z"/>
<path id="font_2_2" d="M.28199769 .24900818C.28199769 .32499696 .27198792 .44898988 .21598816 .5649872 .15699768 .68499758 .07499695 .75 .06399536 .75 .05999756 .75 .054992677 .74798586 .054992677 .74198916 .054992677 .7389984 .054992677 .7369995 .07199097 .71998599 .17199707 .61898806 .22799683 .45399476 .22799683 .25 .22799683 .056015016 .18099976-.11099243 .06498718-.22898865 .054992677-.23799134 .054992677-.23999024 .054992677-.24298096 .054992677-.24897766 .05999756-.25097657 .06399536-.25097657 .07699585-.25097657 .15899658-.1789856 .20799256-.08099365 .25898744 .021011353 .28199769 .12901306 .28199769 .24900818Z"/>
<path id="font_1_1" d="M.29699708 .32548524H.3929901C.46899415 .32548524 .47499085 .30851747 .47499085 .27955628 .47499085 .2665863 .47299195 .25260926 .46798707 .23065186 .46598817 .22665406 .46499635 .22166443 .46499635 .21966553 .46499635 .212677 .46899415 .2086792 .47599793 .2086792 .48399354 .2086792 .4850006 .212677 .4889984 .22865296L.5469971 .4615326C.5469971 .4655304 .5439911 .4715271 .5369873 .4715271 .5279999 .4715271 .5269928 .4675293 .522995 .450531 .5019989 .37548829 .48199464 .3544922 .394989 .3544922H.3039856L.36898805 .6135864C.37799073 .64860537 .37998963 .6516113 .42099 .6516113H.5549927C.6799927 .6516113 .69799807 .6145935 .69799807 .54356387 .69799807 .53756716 .69799807 .5155487 .69499209 .48954774 .69400027 .48553468 .69200137 .47253419 .69200137 .46853639 .69200137 .4605255 .69699099 .4575348 .7029877 .4575348 .70999148 .4575348 .71398928 .4615326 .71598818 .47953797L.7369995 .65460208C.7369995 .65760806 .7389984 .66760256 .7389984 .6696167 .7389984 .680603 .7299957 .680603 .71199038 .680603H.23799134C.21899414 .680603 .20899964 .680603 .20899964 .6626129 .20899964 .6516113 .21598816 .6516113 .23298645 .6516113 .29499818 .6516113 .29499818 .64460757 .29499818 .63360598 .29499818 .6286011 .2939911 .6246033 .29100038 .6135864L.1559906 .073913577C.14698792 .038970949 .14498902 .0289917 .07499695 .0289917 .055999757 .0289917 .04598999 .0289917 .04598999 .010986328 .04598999 0 .054992677 0 .06098938 0 .07998657 0 .099990848 .0019989014 .11898804 .0019989014H.24899292C.2709961 .0019989014 .29499818 0 .31698609 0 .32598878 0 .33799745 0 .33799745 .017990113 .33799745 .0289917 .33198548 .0289917 .30999757 .0289917 .23098755 .0289917 .22898865 .035980226 .22898865 .050949098 .22898865 .05593872 .23098755 .063934329 .23298645 .07092285L.29699708 .32548524Z"/>
<path id="font_4_3" d="M.28199769 .20405579C.2979889 .21907044 .33999635 .2520752 .35598756 .26608277 .41799928 .32312013 .47698976 .3781433 .47698976 .46917726 .47698976 .588089 .3769989 .66503909 .2519989 .66503909 .13198853 .66503909 .052993776 .57411196 .052993776 .48516847 .052993776 .4361725 .09199524 .4291687 .10598755 .4291687 .1269989 .4291687 .1579895 .4441681 .1579895 .48217774 .1579895 .5341797 .10798645 .5341797 .09599304 .5341797 .125 .6070709 .19198609 .6320343 .24099732 .6320343 .33399964 .6320343 .38198854 .55314639 .38198854 .46917726 .38198854 .36514283 .30899049 .28910829 .19099427 .16804505L.06498718 .037994386C.052993776 .026992798 .052993776 .024993897 .052993776 0H.44799806L.47698976 .17904663H.44599916C.44299317 .1590271 .43499757 .10900879 .4229889 .08999634 .4169922 .08198547 .34098817 .08198547 .32499696 .08198547H.14698792L.28199769 .20405579Z"/>
<path id="font_5_1" d="M.34700013 .70799258C.35299684 .72099307 .35299684 .72299197 .35299684 .72698977 .35299684 .73999026 .34298707 .75 .32998658 .75 .31498719 .75 .30999757 .7389984 .30599977 .7279968L.12298584 .2689972C.116989139 .2559967 .116989139 .2539978 .116989139 .25 .116989139 .24598694 .116989139 .24398804 .12298584 .23098755L.3039856-.2250061C.31098939-.2420044 .31698609-.25 .32998658-.25 .34298707-.25 .35299684-.2400055 .35299684-.227005 .35299684-.2230072 .35299684-.2210083 .34700013-.20800781L.16499329 .25 .34700013 .70799258Z"/>
<path id="font_6_1" d="M.548996 .36465455C.5669861 .36465455 .57398989 .36465455 .58599856 .37265016 .5970001 .38165284 .6009979 .3956604 .6009979 .40264894 .6009979 .43066407 .57598879 .43066407 .5589905 .43066407H.31298829C.15899658 .43066407 .040985109 .2728119 .040985109 .15200806 .040985109 .0541687 .11099243-.009765625 .20399475-.009765625 .32998658-.009765625 .46699525 .111068729 .46699525 .25982667 .46699525 .31373597 .44799806 .34568788 .43699647 .36465455H.548996M.20498657 .018234253C.15499878 .018234253 .11099243 .05117798 .11099243 .124053958 .11099243 .1659851 .13598633 .36465455 .29699708 .36465455 .3939972 .36465455 .3939972 .29078675 .3939972 .26982118 .3939972 .16697693 .32299806 .018234253 .20498657 .018234253Z"/>
<path id="font_5_2" d="M.2889862 .23098755C.29499818 .24398804 .29499818 .24598694 .29499818 .25 .29499818 .2539978 .29499818 .2559967 .2889862 .2689972L.10798645 .72499087C.100997928 .74198916 .09498596 .75 .08198547 .75 .068984989 .75 .05899048 .73999026 .05899048 .72698977 .05899048 .72299197 .05899048 .72099307 .06498718 .70799258L.24699402 .25 .06498718-.20800781C.05899048-.2210083 .05899048-.2230072 .05899048-.227005 .05899048-.2400055 .068984989-.25 .08198547-.25 .09700012-.25 .101989749-.23901367 .10598755-.22801209L.2889862 .23098755Z"/>
<path id="font_7_1" d="M.41299439-1.1491852C.41299439-1.1451874 .41099549-1.1431885 .40899659-1.1401825 .36299134-1.0911713 .29499818-1.0101624 .25299073-.84713748 .22999573-.7561188 .22099304-.65309146 .22099304-.56007388 .22099304-.2970276 .28399659-.11299133 .4039917 .017044068 .41299439 .026031495 .41299439 .028030396 .41299439 .030029297 .41299439 .040039064 .40499879 .040039064 .40098573 .040039064 .38598634 .040039064 .33198548-.019973755 .31900025-.034973146 .21699524-.1559906 .1519928-.33602906 .1519928-.5590668 .1519928-.7010956 .1769867-.9021454 .30799867-1.071167 .31799317-1.0831757 .3829956-1.1591797 .40098573-1.1591797 .40499879-1.1591797 .41299439-1.1591797 .41299439-1.1491852Z"/>
<path id="font_2_3" d="M.39898683 .23057556H.6749878C.68899539 .23057556 .70700076 .23057556 .70700076 .24856568 .70700076 .26757813 .6899872 .26757813 .6749878 .26757813H.39898683V.5441437C.39898683 .5581665 .39898683 .5761719 .3809967 .5761719 .3619995 .5761719 .3619995 .5591583 .3619995 .5441437V.26757813H.085998538C.07199097 .26757813 .053985597 .26757813 .053985597 .24957276 .053985597 .23057556 .070999149 .23057556 .085998538 .23057556H.3619995V-.045166017C.3619995-.059158327 .3619995-.07714844 .37998963-.07714844 .39898683-.07714844 .39898683-.060150148 .39898683-.045166017V.23057556Z"/>
<path id="font_4_2" d="M.31399537 .63708499C.31399537 .664032 .31199647 .66503909 .2849884 .66503909 .24398804 .6251831 .19099427 .6013489 .09599304 .6013489V.5683594C.12298584 .5683594 .1769867 .5683594 .23498535 .5953522V.08203125C.23498535 .04499817 .23199463 .032989503 .13699341 .032989503H.101989749V0C.14299011 .0029907227 .22898865 .0029907227 .27398683 .0029907227 .31900025 .0029907227 .4059906 .0029907227 .44699098 0V.032989503H.4119873C.31698609 .032989503 .31399537 .04499817 .31399537 .08203125V.63708499Z"/>
<path id="font_6_3" d="M.5009918 .39942933C.45700074 .38842774 .45498658 .34942628 .45498658 .34542848 .45498658 .3234253 .47200013 .3084259 .49398805 .3084259 .5159912 .3084259 .5499878 .3254242 .5499878 .36842347 .5499878 .42539979 .4869995 .44140626 .44999696 .44140626 .40299989 .44140626 .36499024 .4084015 .34199525 .36943055 .31999208 .4223938 .2679901 .44140626 .22698975 .44140626 .117996219 .44140626 .056991579 .31643678 .056991579 .28840638 .056991579 .27938844 .06399536 .27539063 .07199097 .27539063 .083999637 .27539063 .085998538 .2803955 .08898926 .29240418 .11199951 .36543275 .17199707 .4133911 .22399903 .4133911 .2630005 .4133911 .28199769 .385437 .28199769 .34942628 .28199769 .32943727 .269989 .2834015 .2619934 .25135804 .25498963 .22232056 .23298645 .13320923 .22799683 .11419678 .21398926 .060195924 .17799378 .018234253 .1329956 .018234253 .1289978 .018234253 .102996829 .018234253 .08198547 .032196046 .12799073 .04319763 .12799073 .08518982 .12799073 .0861969 .12799073 .109191898 .10998535 .12319946 .08799744 .12319946 .06098938 .12319946 .03199768 .10018921 .03199768 .062194826 .03199768 .016220093 .08099365-.009765625 .13198853-.009765625 .18499756-.009765625 .22200012 .030197144 .23999024 .062194826 .2619934 .01322937 .30799867-.009765625 .35598756-.009765625 .46499635-.009765625 .5249939 .1151886 .5249939 .143219 .5249939 .15322876 .5169983 .15623474 .5099945 .15623474 .49798585 .15623474 .49598695 .14923096 .49299623 .13922119 .47299195 .07218933 .41600038 .018234253 .35798646 .018234253 .32499696 .018234253 .30099488 .04019165 .30099488 .0821991 .30099488 .10218811 .30699159 .12519837 .32099916 .18127442 .32798768 .21130371 .34999085 .29942323 .35499574 .31843568 .36898805 .37042237 .4039917 .4133911 .44898988 .4133911 .45399476 .4133911 .47999574 .4133911 .5009918 .39942933Z"/>
<path id="font_7_2" d="M.30499269-.56007388C.30499269-.41804505 .27999879-.2170105 .14898682-.047973634 .13899231-.035964967 .07398987 .040039064 .055999757 .040039064 .050994874 .040039064 .04399109 .038024904 .04399109 .030029297 .04399109 .026031495 .04598999 .023025513 .049987794 .02003479 .09799194-.031967164 .16299439-.11299133 .20399475-.27201844 .22698975-.3630371 .23599243-.4660492 .23599243-.5590668 .23599243-.6600952 .22698975-.7621155 .20098877-.86013796 .16299439-1.0001679 .10398865-1.0801697 .052993776-1.1361847 .04399109-1.1451874 .04399109-1.1471863 .04399109-1.1491852 .04399109-1.1571808 .050994874-1.1591797 .055999757-1.1591797 .070999149-1.1591797 .12599182-1.098175 .13798523-1.0841827 .23999024-.96315 .30499269-.7831116 .30499269-.56007388Z"/>
<path id="font_6_2" d="M.31399537 .36465455H.49299623C.5089874 .36465455 .519989 .36465455 .5299988 .37265016 .5419922 .38365174 .54499819 .39665223 .54499819 .40264894 .54499819 .43066407 .519989 .43066407 .5029907 .43066407H.20098877C.17999268 .43066407 .14199829 .43066407 .09298706 .3826599 .056991579 .3466797 .0289917 .300766 .0289917 .29377748 .0289917 .28479005 .035995485 .28179933 .04399109 .28179933 .053985597 .28179933 .055999757 .28479005 .06199646 .29278565 .11099243 .36465455 .16999817 .36465455 .19299317 .36465455H.2789917L.19299317 .088134769C.18598938 .06517029 .17298889 .024246216 .17298889 .019256592 .17298889-.0037231446 .19400025-.01171875 .20599365-.01171875 .24299622-.01171875 .24899292 .023254395 .2519989 .038223268L.31399537 .36465455Z"/>
<path id="font_8_1" d="M.6589966 .23046875C.6759949 .23046875 .69400027 .23046875 .69400027 .25045777 .69400027 .27046205 .6759949 .27046205 .6589966 .27046205H.117996219C.100997928 .27046205 .08299255 .27046205 .08299255 .25045777 .08299255 .23046875 .100997928 .23046875 .117996219 .23046875H.6589966Z"/>
<path id="font_7_3" d="M.5149994-1.7478027C.5169983-1.7487946 .526001-1.7587891 .5269928-1.7587891H.548996C.5519867-1.7587891 .55999758-1.7577973 .55999758-1.7487946 .55999758-1.7447968 .55799868-1.7427979 .55599978-1.7397919 .519989-1.7037964 .46598817-1.6488037 .4039917-1.5388184 .29599-1.3468323 .2559967-1.0998688 .2559967-.8598938 .2559967-.41593934 .38198854-.154953 .5569916 .022033692 .55999758 .025024414 .55999758 .028030396 .55999758 .030029297 .55999758 .040039064 .5529938 .040039064 .54100039 .040039064 .5279999 .040039064 .526001 .040039064 .5169983 .0320282 .42199708-.049972536 .31498719-.18894959 .24598694-.39993287 .20298767-.5319214 .17999268-.6929016 .17999268-.8588867 .17999268-1.0958557 .22299195-1.3638306 .37998963-1.5958099 .40699769-1.6348114 .44400025-1.6757965 .44400025-1.6768036 .45399476-1.688797 .46798707-1.7048035 .47599793-1.711792L.5149994-1.7478027Z"/>
<path id="font_9_2" d="M.56399539 .1640625V.2030487H.44699098V.6448059C.44699098 .6678009 .44699098 .6748047 .42199708 .6748047 .4039917 .6748047 .4019928 .6717987 .3929901 .65979006L.04598999 .2030487V.1640625H.35699464V.08401489C.35699464 .050994874 .35699464 .038986207 .272995 .038986207H.24398804V0C.2639923 .0009918213 .35798646 .0039978029 .4019928 .0039978029 .44599916 .0039978029 .5399933 .0009918213 .55999758 0V.038986207H.5309906C.44699098 .038986207 .44699098 .050994874 .44699098 .08401489V.1640625H.56399539M.3639984 .56585696V.2030487H.08898926L.3639984 .56585696Z"/>
<path id="font_4_1" d="M.43598939 .22743225H.7299957C.74398806 .22743225 .7659912 .22743225 .7659912 .25042726 .7659912 .2734375 .74398806 .2734375 .7299957 .2734375H.43598939V.56799319C.43598939 .5819855 .43598939 .6039734 .41299439 .6039734 .3899994 .6039734 .3899994 .5819855 .3899994 .56799319V.2734375H.09498596C.08099365 .2734375 .05899048 .2734375 .05899048 .25042726 .05899048 .22743225 .08099365 .22743225 .09498596 .22743225H.3899994V-.067993167C.3899994-.08201599 .3899994-.104019168 .41299439-.104019168 .43598939-.104019168 .43598939-.08201599 .43598939-.067993167V.22743225Z"/>
<path id="font_9_1" d="M.5379944 .18702698H.5009918C.49899293 .17301941 .4889984 .10699463 .47399903 .09599304 .46699525 .08999634 .38598634 .08999634 .37199403 .08999634H.18499756L.31298829 .19403076C.34700013 .22103882 .43598939 .28504945 .46699525 .31506349 .49699403 .3450775 .5379944 .39608766 .5379944 .46710206 .5379944 .5920563 .4249878 .66503909 .29100038 .66503909 .1619873 .66503909 .07199097 .58006289 .07199097 .48609925 .07199097 .43510438 .114990238 .42910768 .12599182 .42910768 .15098572 .42910768 .17999268 .44709779 .17999268 .48310853 .17999268 .50509646 .16699219 .5371094 .12298584 .5371094 .1459961 .5880585 .20698548 .6260376 .27598573 .6260376 .3809967 .6260376 .43699647 .5480957 .43699647 .46710206 .43699647 .39608766 .3899994 .32305909 .31999208 .25904847L.08299255 .041992189C.07299805 .03199768 .07199097 .0309906 .07199097 0H.5069885L.5379944 .18702698Z"/>
<path id="font_7_4" d="M.41600038-.8588867C.41600038-.5719147 .34899903-.2669525 .1519928-.04197693 .13798523-.025970459 .100997928 .013031006 .07699585 .0340271 .069992069 .040039064 .067993167 .040039064 .054992677 .040039064 .04499817 .040039064 .035995485 .040039064 .035995485 .030029297 .035995485 .026031495 .039993287 .022033692 .041992189 .02003479 .07598877-.014968872 .12998963-.06996155 .19198609-.17996216 .2999878-.37193299 .33999635-.61891177 .33999635-.8588867 .33999635-1.2928467 .21998596-1.5578156 .039993287-1.740799 .037994386-1.7427979 .035995485-1.7458038 .035995485-1.7487946 .035995485-1.7587891 .04499817-1.7587891 .054992677-1.7587891 .067993167-1.7587891 .069992069-1.7587891 .07899475-1.7507935 .17399597-1.668808 .2809906-1.5298157 .34999085-1.3188324 .3939972-1.1818543 .41600038-1.019867 .41600038-.8588867Z"/>
</defs>
<use data-text="K" xlink:href="#font_1_2" transform="matrix(11.9552,0,0,-11.955917,129.076,9.947937)"/>
<use data-text="=" xlink:href="#font_2_4" transform="matrix(11.9552,0,0,-11.955917,143.21501,9.947937)"/>
<use data-text="R" xlink:href="#font_3_1" transform="matrix(11.9552,0,0,-11.955917,155.64,9.947937)"/>
<use data-text="(" xlink:href="#font_2_1" transform="matrix(11.9552,0,0,-11.955917,164.27501,9.947937)"/>
<use data-text="x" xlink:href="#font_1_3" transform="matrix(11.9552,0,0,-11.955917,168.82701,9.947937)"/>
<use data-text=")" xlink:href="#font_2_2" transform="matrix(11.9552,0,0,-11.955917,175.47902,9.947937)"/>
<use data-text="F" xlink:href="#font_1_1" transform="matrix(11.9552,0,0,-11.955917,.7420044,75.05485)"/>
<use data-text="(" xlink:href="#font_2_1" transform="matrix(11.9552,0,0,-11.955917,11.938019,75.05485)"/>
<use data-text="x" xlink:href="#font_1_3" transform="matrix(11.9552,0,0,-11.955917,16.49002,75.05485)"/>
<use data-text="2" xlink:href="#font_4_3" transform="matrix(7.9701,0,0,-7.9705779,23.142029,70.71658)"/>
<use data-text=")" xlink:href="#font_2_2" transform="matrix(11.9552,0,0,-11.955917,27.87503,75.05485)"/>
<use data-text="=" xlink:href="#font_2_4" transform="matrix(11.9552,0,0,-11.955917,35.729585,75.05485)"/>
<use data-text="K" xlink:href="#font_1_2" transform="matrix(11.9552,0,0,-11.955917,48.173036,75.05485)"/>
<use data-text="&#x27e8;" xlink:href="#font_5_1" transform="matrix(7.9701,0,0,-7.9705779,58.991029,70.71658)"/>
<use data-text="&#x03c3;" xlink:href="#font_6_1" transform="matrix(7.9701,0,0,-7.9705779,62.284029,70.71658)"/>
<use data-text="&#x27e9;" xlink:href="#font_5_2" transform="matrix(7.9701,0,0,-7.9705779,67.410037,70.71658)"/>
<use data-text="F" xlink:href="#font_1_1" transform="matrix(11.9552,0,0,-11.955917,110.198,75.05485)"/>
<use data-text="(" xlink:href="#font_7_1" transform="matrix(11.9552,0,0,-11.955917,121.39401,65.37126)"/>
<use data-text="x" xlink:href="#font_1_3" transform="matrix(11.9552,0,0,-11.955917,126.87402,75.05485)"/>
<use data-text="+" xlink:href="#font_2_3" transform="matrix(11.9552,0,0,-11.955917,136.18302,75.05485)"/>
<use data-text="1" xlink:href="#font_4_2" transform="matrix(7.9701,0,0,-7.9705779,149.406,70.347568)"/>
<path transform="matrix(1,0,0,-1.00006,-272.108,79.01608)" stroke-width=".4782" stroke-linecap="butt" stroke-miterlimit="10" stroke-linejoin="miter" fill="none" stroke="#000000" d="M421.247 6.949H426.014"/>
<use data-text="x" xlink:href="#font_6_3" transform="matrix(7.9701,0,0,-7.9705779,149.139,79.17809)"/>
<use data-text=")" xlink:href="#font_7_2" transform="matrix(11.9552,0,0,-11.955917,155.10202,65.37126)"/>
<use data-text="=" xlink:href="#font_2_4" transform="matrix(11.9552,0,0,-11.955917,163.90201,75.05485)"/>
<use data-text="K" xlink:href="#font_1_2" transform="matrix(11.9552,0,0,-11.955917,176.328,75.05485)"/>
<use data-text="&#x27e8;" xlink:href="#font_5_1" transform="matrix(7.9701,0,0,-7.9705779,187.14499,70.71658)"/>
<use data-text="&#x03c4;" xlink:href="#font_6_2" transform="matrix(7.9701,0,0,-7.9705779,190.439,70.71658)"/>
<use data-text="&#x27e9;" xlink:href="#font_5_2" transform="matrix(7.9701,0,0,-7.9705779,195.117,70.71658)"/>
<use data-text="F" xlink:href="#font_1_1" transform="matrix(11.9552,0,0,-11.955917,237.90595,75.05485)"/>
<use data-text="(" xlink:href="#font_7_1" transform="matrix(11.9552,0,0,-11.955917,249.10297,65.37126)"/>
<use data-text="x" xlink:href="#font_1_3" transform="matrix(11.9552,0,0,-11.955917,254.58197,75.05485)"/>
<use data-text="&#x2212;" xlink:href="#font_8_1" transform="matrix(11.9552,0,0,-11.955917,263.891,75.05485)"/>
<use data-text="1" xlink:href="#font_4_2" transform="matrix(7.9701,0,0,-7.9705779,277.30799,70.347568)"/>
<path transform="matrix(1,0,0,-1.00006,-274.76704,79.01608)" stroke-width=".4782" stroke-linecap="butt" stroke-miterlimit="10" stroke-linejoin="miter" fill="none" stroke="#000000" d="M551.809 6.949H556.575"/>
<use data-text="x" xlink:href="#font_6_3" transform="matrix(7.9701,0,0,-7.9705779,277.042,79.17809)"/>
<use data-text=")" xlink:href="#font_7_2" transform="matrix(11.9552,0,0,-11.955917,283.00398,65.37126)"/>
<use data-text="=" xlink:href="#font_2_4" transform="matrix(11.9552,0,0,-11.955917,291.80397,75.05485)"/>
<use data-text="K" xlink:href="#font_1_2" transform="matrix(11.9552,0,0,-11.955917,304.22999,75.05485)"/>
<use data-text="&#x27e8;" xlink:href="#font_5_1" transform="matrix(7.9701,0,0,-7.9705779,315.047,70.71658)"/>
<use data-text="&#x03c3;" xlink:href="#font_6_1" transform="matrix(7.9701,0,0,-7.9705779,318.341,70.71658)"/>
<use data-text="&#x03c4;" xlink:href="#font_6_2" transform="matrix(7.9701,0,0,-7.9705779,323.45777,70.71658)"/>
<use data-text="&#x27e9;" xlink:href="#font_5_2" transform="matrix(7.9701,0,0,-7.9705779,328.14399,70.71658)"/>
<use data-text="F" xlink:href="#font_1_1" transform="matrix(11.9552,0,0,-11.955917,118.56,144.79003)"/>
<use data-text="=" xlink:href="#font_2_4" transform="matrix(11.9552,0,0,-11.955917,131.08499,144.79003)"/>
<use data-text="R" xlink:href="#font_3_1" transform="matrix(11.9552,0,0,-11.955917,143.50998,144.79003)"/>
<use data-text="(" xlink:href="#font_7_3" transform="matrix(11.9552,0,0,-11.955917,154.137,131.51923)"/>
<use data-text="x" xlink:href="#font_6_3" transform="matrix(7.9701,0,0,-7.9705779,162.47199,140.08274)"/>
<use data-text="4" xlink:href="#font_9_2" transform="matrix(5.9776,0,0,-5.9779589,167.23899,137.27057)"/>
<use data-text="+" xlink:href="#font_4_1" transform="matrix(7.9701,0,0,-7.9705779,171.38999,140.08274)"/>
<use data-text="1" xlink:href="#font_4_2" transform="matrix(7.9701,0,0,-7.9705779,177.9733,140.08274)"/>
<path transform="matrix(1,0,0,-1.00006,-263.746,79.01608)" stroke-width=".4782" stroke-linecap="butt" stroke-miterlimit="10" stroke-linejoin="miter" fill="none" stroke="#000000" d="M426.218-62.782H445.957"/>
<use data-text="x" xlink:href="#font_6_3" transform="matrix(7.9701,0,0,-7.9705779,167.883,148.91327)"/>
<use data-text="2" xlink:href="#font_9_1" transform="matrix(5.9776,0,0,-5.9779589,172.65,146.64414)"/>
<use data-text=")" xlink:href="#font_7_4" transform="matrix(11.9552,0,0,-11.955917,183.40699,131.51923)"/>
<path transform="matrix(1,0,0,-1.00006,166.342,76.76994)" stroke-width=".47818" stroke-linecap="butt" stroke-miterlimit="10" stroke-linejoin="miter" fill="none" stroke="#000000" d="M-31.01212 59.25235-108.70134 16.61162"/>
<path transform="matrix(1,0,0,-1.00006,166.342,76.76994)" stroke-width=".47818" stroke-linecap="butt" stroke-miterlimit="10" stroke-linejoin="miter" fill="none" stroke="#000000" d="M-11.78519 59.25235V16.61162"/>
<path transform="matrix(1,0,0,-1.00006,166.342,76.76994)" stroke-width=".47818" stroke-linecap="butt" stroke-miterlimit="10" stroke-linejoin="miter" fill="none" stroke="#000000" d="M9.3525 59.25235 94.76273 16.61162"/>
<path transform="matrix(1,0,0,-1.00006,166.342,76.76994)" stroke-width=".47818" stroke-linecap="butt" stroke-miterlimit="10" stroke-linejoin="miter" fill="none" stroke="#000000" d="M-112.42038-5.85156-37.86093-49.6879"/>
<path transform="matrix(1,0,0,-1.00006,166.342,76.76994)" stroke-width=".47818" stroke-linecap="butt" stroke-miterlimit="10" stroke-linejoin="miter" fill="none" stroke="#000000" d="M-11.78519-7.04718V-49.6879"/>
<path transform="matrix(1,0,0,-1.00006,166.342,76.76994)" stroke-width=".47818" stroke-linecap="butt" stroke-miterlimit="10" stroke-linejoin="miter" fill="none" stroke="#000000" d="M96.61656-7.04718 16.88199-49.6879"/>
</svg>
