<svg xmlns="http://www.w3.org/2000/svg" xmlns:xlink="http://www.w3.org/1999/xlink" xmlns:inkscape="http://www.inkscape.org/namespaces/inkscape" version="1.1" width="234" height="62" viewBox="0 0 234 62">
<defs>
<path id="font_1_4" d="M.29699708 .32548524H.3929901C.46899415 .32548524 .47499085 .30851747 .47499085 .27955628 .47499085 .2665863 .47299195 .25260926 .46798707 .23065186 .46598817 .22665406 .46499635 .22166443 .46499635 .21966553 .46499635 .212677 .46899415 .2086792 .47599793 .2086792 .48399354 .2086792 .4850006 .212677 .4889984 .22865296L.5469971 .4615326C.5469971 .4655304 .5439911 .4715271 .5369873 .4715271 .5279999 .4715271 .5269928 .4675293 .522995 .450531 .5019989 .37548829 .48199464 .3544922 .394989 .3544922H.3039856L.36898805 .6135864C.37799073 .64860537 .37998963 .6516113 .42099 .6516113H.5549927C.6799927 .6516113 .69799807 .6145935 .69799807 .54356387 .69799807 .53756716 .69799807 .5155487 .69499209 .48954774 .69400027 .48553468 .69200137 .47253419 .69200137 .46853639 .69200137 .4605255 .69699099 .4575348 .7029877 .4575348 .70999148 .4575348 .71398928 .4615326 .71598818 .47953797L.7369995 .65460208C.7369995 .65760806 .7389984 .66760256 .7389984 .6696167 .7389984 .680603 .7299957 .680603 .71199038 .680603H.23799134C.21899414 .680603 .20899964 .680603 .20899964 .6626129 .20899964 .6516113 .21598816 .6516113 .23298645 .6516113 .29499818 .6516113 .29499818 .64460757 .29499818 .63360598 .29499818 .6286011 .2939911 .6246033 .29100038 .6135864L.1559906 .073913577C.14698792 .038970949 .14498902 .0289917 .07499695 .0289917 .055999757 .0289917 .04598999 .0289917 .04598999 .010986328 .04598999 0 .054992677 0 .06098938 0 .07998657 0 .099990848 .0019989014 .11898804 .0019989014H.24899292C.2709961 .0019989014 .29499818 0 .31698609 0 .32598878 0 .33799745 0 .33799745 .017990113 .33799745 .0289917 .33198548 .0289917 .30999757 .0289917 .23098755 .0289917 .22898865 .035980226 .22898865 .050949098 .22898865 .05593872 .23098755 .063934329 .23298645 .07092285L.29699708 .32548524Z"/>
<path id="font_2_3" d="M.25-.25V-.2130127H.15299988V.71299746H.25V.75H.115997318V-.25H.25Z"/>
<path id="font_1_6" d="M.47399903 .40820313C.44198609 .40219117 .42999269 .3781891 .42999269 .3591919 .42999269 .33518983 .44898988 .3271942 .46299745 .3271942 .49299623 .3271942 .5139923 .3531952 .5139923 .380188 .5139923 .4223938 .46598817 .44140626 .42399598 .44140626 .36299134 .44140626 .32899476 .38119508 .31999208 .36219789 .29699708 .4373932 .23498535 .44140626 .21699524 .44140626 .114990238 .44140626 .06098938 .31021119 .06098938 .28822328 .06098938 .28422547 .06498718 .27923585 .07199097 .27923585 .07998657 .27923585 .08198547 .28523255 .083999637 .2892151 .117996219 .40019227 .18499756 .42140199 .21398926 .42140199 .25898744 .42140199 .2679901 .37919618 .2679901 .3551941 .2679901 .33319093 .2619934 .31021119 .25 .26223756L.21598816 .12535095C.20098877 .06535339 .17199707 .010223389 .11898804 .010223389 .11399841 .010223389 .08898926 .010223389 .067993167 .023330689 .10398865 .03036499 .11199951 .06036377 .11199951 .07235718 .11199951 .09236145 .09700012 .10435486 .07798767 .10435486 .053985597 .10435486 .027999878 .083358768 .027999878 .051361085 .027999878 .009231567 .07499695-.009765625 .117996219-.009765625 .1659851-.009765625 .19999695 .028366089 .22099304 .069366458 .23699951 .010223389 .2869873-.009765625 .32398988-.009765625 .42599488-.009765625 .47999574 .12135315 .47999574 .1433258 .47999574 .14833069 .47599793 .15232849 .46998597 .15232849 .46099855 .15232849 .45999146 .14732361 .45700074 .139328 .42999269 .051361085 .37199403 .010223389 .32699586 .010223389 .2919922 .010223389 .272995 .036361696 .272995 .07736206 .272995 .099365238 .2769928 .115356449 .29299928 .18130493L.32798768 .3171997C.34298707 .37719728 .3769989 .42140199 .4229889 .42140199 .4249878 .42140199 .45298768 .42140199 .47399903 .40820313Z"/>
<path id="font_2_4" d="M.15499878 .75H.020996094V.71299746H.117996219V-.2130127H.020996094V-.25H.15499878V.75Z"/>
<path id="font_1_3" d="M.42900086 .71299746C.42900086 .71398928 .43499757 .72898867 .43499757 .73098757 .43499757 .7429962 .4249878 .75 .4169922 .75 .4119873 .75 .40299989 .75 .394989 .7279968L.05999756-.2130127C.05999756-.21400452 .053985597-.2290039 .053985597-.23100281 .053985597-.24301148 .06399536-.25 .07199097-.25 .07798767-.25 .08699036-.24900818 .09399414-.22801209L.42900086 .71299746Z"/>
<path id="font_2_1" d="M.32499696-.24298096C.32499696-.23999024 .32499696-.23799134 .30799867-.22097779 .20799256-.11997986 .1519928 .045013429 .1519928 .24900818 .1519928 .44299317 .19898987 .60998538 .31498719 .7279968 .32499696 .7369995 .32499696 .7389984 .32499696 .74198916 .32499696 .74798586 .31999208 .75 .31599427 .75 .30299378 .75 .22099304 .6779938 .17199707 .5799866 .12098694 .47898866 .09799194 .37199403 .09799194 .24900818 .09799194 .16000366 .11199951 .041015626 .1639862-.06599426 .22299195-.18598938 .30499269-.25097657 .31599427-.25097657 .31999208-.25097657 .32499696-.24897766 .32499696-.24298096Z"/>
<path id="font_1_5" d="M.042999269-.12719727C.035995485-.15731812 .03199768-.16534424-.009002686-.16534424-.021011353-.16534424-.03100586-.16534424-.03100586-.18434143-.03100586-.18634033-.030014039-.19433594-.019012452-.19433594-.006011963-.19433594 .0079956059-.19233704 .020996094-.19233704H.06399536C.084991458-.19233704 .13598633-.19433594 .15699768-.19433594 .16299439-.19433594 .1749878-.19433594 .1749878-.17634583 .1749878-.16534424 .16799927-.16534424 .15098572-.16534424 .10499573-.16534424 .101989749-.1583252 .101989749-.15028382 .101989749-.13824463 .14698792 .034240724 .15299988 .057250978 .1639862 .02923584 .19099427-.009765625 .24299622-.009765625 .35598756-.009765625 .47799684 .13728333 .47799684 .28434754 .47799684 .3763733 .42599488 .44140626 .35099793 .44140626 .2869873 .44140626 .23298645 .37937928 .22200012 .3653717 .21398926 .41539 .1749878 .44140626 .1349945 .44140626 .10598755 .44140626 .08299255 .42739869 .06399536 .38938905 .04598999 .35336305 .03199768 .29234315 .03199768 .28834535 .03199768 .28434754 .035995485 .27934266 .042999269 .27934266 .050994874 .27934266 .051986696 .28033448 .057998659 .30334474 .07299805 .36238099 .09199524 .42140199 .13198853 .42140199 .15499878 .42140199 .16299439 .4053955 .16299439 .37538148 .16299439 .35136415 .1599884 .34136964 .1559906 .32336427L.042999269-.12719727M.21598816 .3123474C.22299195 .34036256 .25099183 .36938478 .2669983 .38337709 .27799989 .39338685 .31098939 .42140199 .34899903 .42140199 .3929901 .42140199 .41299439 .37738038 .41299439 .32536317 .41299439 .27734376 .3849945 .16429138 .3600006 .11227417 .33499146 .058242799 .2889862 .010223389 .24299622 .010223389 .1749878 .010223389 .1639862 .0962677 .1639862 .1002655 .1639862 .103271488 .1659851 .11126709 .16699219 .11627197L.21598816 .3123474Z"/>
<path id="font_2_2" d="M.28199769 .24900818C.28199769 .32499696 .27198792 .44898988 .21598816 .5649872 .15699768 .68499758 .07499695 .75 .06399536 .75 .05999756 .75 .054992677 .74798586 .054992677 .74198916 .054992677 .7389984 .054992677 .7369995 .07199097 .71998599 .17199707 .61898806 .22799683 .45399476 .22799683 .25 .22799683 .056015016 .18099976-.11099243 .06498718-.22898865 .054992677-.23799134 .054992677-.23999024 .054992677-.24298096 .054992677-.24897766 .05999756-.25097657 .06399536-.25097657 .07699585-.25097657 .15899658-.1789856 .20799256-.08099365 .25898744 .021011353 .28199769 .12901306 .28199769 .24900818Z"/>
<path id="font_1_1" d="M.46299745 .25332643C.46299745 .3503723 .4079895 .44140626 .3019867 .44140626 .17098999 .44140626 .039993287 .2983551 .039993287 .15628052 .039993287 .069244388 .09399414-.009765625 .19599915-.009765625 .2579956-.009765625 .33198548 .014221191 .40299989 .07424927 .4169922 .018234253 .44799806-.009765625 .4909973-.009765625 .54499819-.009765625 .57199099 .04624939 .57199099 .059249879 .57199099 .06825256 .5649872 .06825256 .56199648 .06825256 .55400088 .06825256 .5529938 .06524658 .5499878 .057250978 .54100039 .03224182 .5179901 .010223389 .49398805 .010223389 .46299745 .010223389 .46299745 .07424927 .46299745 .13528443 .5649872 .25732423 .58898928 .38337709 .58898928 .38438417 .58898928 .39338685 .58099368 .39338685 .5779877 .39338685 .56900027 .39338685 .56799319 .39038087 .56399539 .3723755 .5509949 .32835389 .5249939 .25032044 .46299745 .16828919V.25332643M.3999939 .0982666C.31199647 .019226075 .23298645 .010223389 .19799805 .010223389 .1269989 .010223389 .10699463 .07325745 .10699463 .120269779 .10699463 .1632843 .1289978 .26533509 .1599884 .32035829 .20098877 .39038087 .25698854 .42140199 .3019867 .42140199 .39898683 .42140199 .39898683 .29434205 .39898683 .21031189 .39898683 .18530274 .397995 .1592865 .397995 .13427735 .397995 .11427307 .39898683 .10926819 .3999939 .0982666Z"/>
<path id="font_3_1" d="M.2649994 .4740448C.269989 .4870453 .27398683 .49404908 .27398683 .5040436 .27398683 .53704836 .24398804 .5590515 .21598816 .5590515 .17599488 .5590515 .16499329 .52404788 .16099549 .51005557L.033996583 .07901001C.02999878 .06700134 .02999878 .06401062 .02999878 .06300354 .02999878 .054000856 .035995485 .052001954 .04598999 .04901123 .06399536 .041015626 .06599426 .041015626 .067993167 .041015626 .070999149 .041015626 .07699585 .041015626 .083999637 .058013917L.2649994 .4740448Z"/>
<path id="font_1_2" d="M.56599429 .58187869C.56599429 .6419678 .5149994 .7050781 .42399598 .7050781 .29499818 .7050781 .21299744 .5468292 .18699646 .44267274L.0289917-.18434143C.026992798-.19233704 .032989503-.19433594 .037994386-.19433594 .04499817-.19433594 .049987794-.19334412 .050994874-.18833924L.12098694 .09207153C.1309967 .03617859 .18598938-.009765625 .24499512-.009765625 .3880005-.009765625 .522995 .10205078 .522995 .25076295 .522995 .28868104 .5139923 .32661439 .49299623 .35855104 .48098756 .3775177 .46598817 .39149476 .44999696 .40351869 .5219879 .44166566 .56599429 .50276187 .56599429 .58187869M.3919983 .40452577C.37599183 .39848329 .3600006 .39648438 .34098817 .39648438 .32699586 .39648438 .31399537 .3954773 .29599 .40150453 .30599977 .40853883 .32099916 .41055299 .34199525 .41055299 .3600006 .41055299 .37799073 .40853883 .3919983 .40452577M.5139923 .5908966C.5139923 .5358124 .4869995 .45568849 .42199708 .41859437 .40299989 .42562867 .3769989 .43066407 .35499574 .43066407 .33399964 .43066407 .27398683 .43266297 .27398683 .40049745 .27398683 .3735199 .32899476 .37651063 .34599305 .37651063 .37199403 .37651063 .394989 .38250733 .4189911 .38949586 .45098878 .36354066 .46499635 .3296051 .46499635 .27970887 .46499635 .22181702 .44898988 .1749115 .42999269 .13198853 .39698792 .058135988 .31900025 .010223389 .25 .010223389 .1769867 .010223389 .13899231 .068115238 .13899231 .13598633 .13899231 .1449585 .13899231 .15794373 .14299011 .1729126L.20799256 .43566896C.24099732 .566864 .32499696 .68504336 .42199708 .68504336 .49398805 .68504336 .5139923 .634964 .5139923 .5908966Z"/>
<path id="font_4_3" d="M.2979889 .6242981C.2979889 .64630129 .28199769 .66230776 .25898744 .66230776 .23298645 .66230776 .20399475 .63830569 .20399475 .6083069 .20399475 .5863037 .21998596 .5703125 .24299622 .5703125 .2689972 .5703125 .2979889 .5942993 .2979889 .6242981M.1519928 .25732423 .09799194 .119277957C.09298706 .104263309 .08799744 .09225464 .08799744 .07525635 .08799744 .026229859 .12599182-.009765625 .1789856-.009765625 .27598573-.009765625 .31698609 .13027954 .31698609 .14328003 .31698609 .1532898 .30899049 .15628052 .3019867 .15628052 .2899933 .15628052 .28799439 .14927674 .2849884 .13928223 .2619934 .059249879 .22099304 .018234253 .18099976 .018234253 .16899109 .018234253 .15699768 .023223877 .15699768 .050247194 .15699768 .07424927 .1639862 .09225464 .1769867 .12327576 .18699646 .15028382 .19699097 .17729187 .20799256 .20431519L.23899842 .28533937C.24798584 .3083496 .2599945 .33937074 .2599945 .35636903 .2599945 .4064026 .21998596 .44140626 .16899109 .44140626 .07199097 .44140626 .02999878 .30134584 .02999878 .28834535 .02999878 .27934266 .036987306 .27534486 .04499817 .27534486 .057998659 .27534486 .05899048 .28134156 .06199646 .29135133 .08999634 .38638307 .13598633 .4133911 .1659851 .4133911 .17999268 .4133911 .18998719 .4084015 .18998719 .38038636 .18998719 .3703766 .18899536 .35636903 .1789856 .32635499L.1519928 .25732423Z"/>
<path id="font_4_2" d="M.548996 .36465455C.5669861 .36465455 .57398989 .36465455 .58599856 .37265016 .5970001 .38165284 .6009979 .3956604 .6009979 .40264894 .6009979 .43066407 .57598879 .43066407 .5589905 .43066407H.31298829C.15899658 .43066407 .040985109 .2728119 .040985109 .15200806 .040985109 .0541687 .11099243-.009765625 .20399475-.009765625 .32998658-.009765625 .46699525 .111068729 .46699525 .25982667 .46699525 .31373597 .44799806 .34568788 .43699647 .36465455H.548996M.20498657 .018234253C.15499878 .018234253 .11099243 .05117798 .11099243 .124053958 .11099243 .1659851 .13598633 .36465455 .29699708 .36465455 .3939972 .36465455 .3939972 .29078675 .3939972 .26982118 .3939972 .16697693 .32299806 .018234253 .20498657 .018234253Z"/>
<path id="font_4_1" d="M.28399659 .36465455H.39898683C.37799073 .2738037 .3600006 .19992066 .3600006 .1260376 .3600006 .11904907 .3600006 .0761261 .37098695 .04017639 .38398744-.0017700195 .3939972-.009765625 .4119873-.009765625 .43399049-.009765625 .45700074 .009231567 .45700074 .033187868 .45700074 .04017639 .45599366 .042175294 .45199586 .05116272 .43099977 .097091678 .41600038 .14500427 .41600038 .22688294 .41600038 .24984741 .41600038 .29177857 .43099977 .36465455H.5519867C.56799319 .36465455 .57899478 .36465455 .58898928 .37265016 .6009979 .38365174 .60398867 .39665223 .60398867 .40264894 .60398867 .43066407 .57899478 .43066407 .56199648 .43066407H.20098877C.17999268 .43066407 .14199829 .43066407 .09298706 .3826599 .056991579 .3466797 .0289917 .300766 .0289917 .29377748 .0289917 .28479005 .035995485 .28178407 .04399109 .28178407 .053985597 .28178407 .055999757 .28479005 .06199646 .2927704 .11099243 .36465455 .16999817 .36465455 .19299317 .36465455H.25099183C.22200012 .25883485 .16899109 .13801575 .13198853 .06513977 .125 .0501709 .114990238 .030197144 .114990238 .021209717 .114990238 .00022888184 .13198853-.009765625 .147995-.009765625 .18598938-.009765625 .19599915 .028198243 .21699524 .110061649L.28399659 .36465455Z"/>
<path id="font_5_3" d="M.3639984 .31939698H.47898866C.5589905 .31939698 .57199099 .30641175 .57199099 .27348329 .57199099 .25952149 .56599429 .23057556 .56199648 .21661377 .56199648 .21560669 .56399539 .20263672 .58099368 .20263672 .59498599 .20263672 .5970001 .20762635 .6009979 .22459412L.6609955 .46247865C.6609955 .46347047 .6589966 .4764862 .6419983 .4764862 .6269989 .4764862 .625 .46948243 .621994 .45646668 .59999087 .3774109 .57598879 .35939027 .48199464 .35939027H.375L.43598939 .60458377C.44400025 .63661196 .44499208 .63861086 .4869995 .63861086H.651001C.7819977 .63861086 .81799319 .6135864 .81799319 .5215149 .81799319 .49949647 .81399539 .46447755 .81399539 .46147157 .81399539 .444458 .8279877 .444458 .83299258 .444458 .848999 .444458 .84999087 .45246888 .85198977 .47047425L.8699951 .6476135C.8730011 .6786041 .86499026 .6786041 .83999636 .6786041H.27799989C.25898744 .6786041 .24398804 .6786041 .24398804 .6536102 .24398804 .63861086 .25898744 .63861086 .2769928 .63861086 .29499818 .63861086 .31999208 .63861086 .34098817 .63160708 .34098817 .6215973 .34098817 .6155853 .33699037 .59957888L.20698548 .082901C.19799805 .04698181 .19599915 .039993287 .12098694 .039993287 .09899902 .039993287 .09700012 .039993287 .09298706 .036987306 .08799744 .032989503 .083999637 .019989014 .083999637 .01399231 .084991458 .009994507 .085998538 0 .101989749 0 .12298584 0 .14698792 .0029907227 .16899109 .0029907227 .19299317 .0029907227 .21598816 .0039978029 .23999024 .0039978029 .2669983 .0039978029 .29599 .0029907227 .32299806 .0029907227 .34700013 .0029907227 .375 0 .39898683 0 .4059906 0 .4229889 0 .4229889 .024993897 .4229889 .039993287 .41099549 .039993287 .38598634 .039993287 .3829956 .039993287 .35798646 .039993287 .33399964 .041992189 .30299378 .04397583 .2999878 .04698181 .2999878 .05795288 .2999878 .058944704 .2999878 .063934329 .3039856 .0789032L.3639984 .31939698Z"/>
<path id="font_6_1" d="M.41299439 .22851563C.43499757 .22851563 .44099427 .22851563 .44099427 .25151063 .44099427 .34039308 .3919983 .44628907 .25099183 .44628907 .1269989 .44628907 .02999878 .3433838 .02999878 .21949768 .02999878 .09031677 .13798523-.009765625 .2639923-.009765625 .3909912-.009765625 .44099427 .097335819 .44099427 .12036133 .44099427 .12435913 .43798829 .13438416 .4249878 .13438416 .4139862 .13438416 .4119873 .12736511 .4099884 .12136841 .37399293 .024230957 .28799439 .021224976 .269989 .021224976 .22499085 .021224976 .1789856 .042251588 .14898682 .08831787 .11898804 .13438416 .11898804 .19847107 .11898804 .22851563H.41299439M.11999512 .25450135C.1289978 .39431764 .21398926 .41827394 .25099183 .41827394 .36799623 .41827394 .37199403 .27748109 .37298585 .25450135H.11999512Z"/>
<path id="font_4_4" d="M.49699403 .36437989C.49699403 .44239808 .45199586 .44239808 .44799806 .44239808 .42399598 .44239808 .3959961 .4163971 .3959961 .39038087 .3959961 .3743744 .4039917 .36738587 .41299439 .359375 .43598939 .33937074 .44999696 .3113556 .44999696 .27934266 .44999696 .23332215 .38398744 .018234253 .2689972 .018234253 .22599793 .018234253 .19099427 .041229249 .19099427 .104263309 .19099427 .1592865 .22099304 .23832703 .24499512 .2983551 .25698854 .33036805 .2599945 .33836366 .2599945 .35636903 .2599945 .4104004 .21598816 .44140626 .16999817 .44140626 .070999149 .44140626 .02999878 .300354 .02999878 .28834535 .02999878 .27934266 .036987306 .27534486 .04499817 .27534486 .057998659 .27534486 .05899048 .28134156 .06199646 .29135133 .08799744 .37838746 .1309967 .4133911 .16699219 .4133911 .18199158 .4133911 .19099427 .40438844 .19099427 .38038636 .19099427 .3573761 .18199158 .33436585 .17199707 .3093567 .12298584 .18330384 .11898804 .15028382 .11898804 .119277957 .11898804 .010223389 .20799256-.009765625 .2649994-.009765625 .43099977-.009765625 .49699403 .28834535 .49699403 .36437989Z"/>
<path id="font_5_1" d="M.58699038 .14128113C.69499209 .25532533 .71798709 .37738038 .71798709 .37939454 .71798709 .39338685 .7029877 .39338685 .69999697 .39338685 .68499758 .39338685 .6839905 .38839723 .67900088 .36938478 .6559906 .28733827 .6100006 .22131348 .58399966 .19030762 .58200076 .21331787 .58200076 .23532105 .5799866 .2583313 .5669861 .38339234 .47200013 .44140626 .375 .44140626 .22200012 .44140626 .07598877 .3073578 .07598877 .16828919 .07598877 .06524658 .1539917-.009765625 .2709961-.009765625 .32398988-.009765625 .41299439 .0042266848 .5139923 .07624817 .5289917 .033233644 .56399539-.009765625 .625-.009765625 .6839905-.009765625 .7220001 .037231447 .7220001 .0602417 .7220001 .07424927 .70799258 .07424927 .70399478 .07424927 .69299319 .07424927 .68899539 .07324219 .6839905 .0602417 .6749878 .035232545 .6459961 .023223877 .6279907 .023223877 .61299136 .023223877 .59399417 .023223877 .58699038 .14128113M.5059967 .11227417C.4079895 .035232545 .31900025 .023223877 .272995 .023223877 .20799256 .023223877 .16299439 .06324768 .16299439 .13528443 .16299439 .17028809 .1789856 .2623291 .22099304 .32136537 .2659912 .38638307 .32998658 .4084015 .37298585 .4084015 .44299317 .4084015 .47898866 .3553772 .49299623 .27734376 .5009918 .23432923 .5 .17129517 .5059967 .11227417Z"/>
<path id="font_5_4" d="M.5629883 .39352418C.5279999 .38352967 .519989 .3545227 .519989 .33952333 .519989 .30752564 .54599 .30052186 .55999758 .30052186 .58898928 .30052186 .6179962 .32452394 .6179962 .3635254 .6179962 .41740418 .5589905 .44140626 .5079956 .44140626 .44198609 .44140626 .4019928 .3905182 .3909912 .371521 .37799073 .39649964 .33999635 .44140626 .2649994 .44140626 .1499939 .44140626 .08198547 .32252503 .08198547 .28749085 .08198547 .2824707 .085998538 .27345277 .099990848 .27345277 .11399841 .27345277 .116989139 .27946473 .11999512 .28848268 .14498902 .3695221 .21299744 .4084015 .2619934 .4084015 .31098939 .4084015 .32598878 .37652589 .32598878 .34352113 .32598878 .3315277 .32598878 .32252503 .31799317 .29148866 .29499818 .19825745 .272995 .10707092 .2679901 .095077518 .25299073 .05708313 .21699524 .023223877 .1749878 .023223877 .16899109 .023223877 .14099121 .023223877 .117996219 .038085939 .15699768 .051071168 .16099549 .08407593 .16099549 .09207153 .16099549 .11807251 .14099121 .13108826 .12098694 .13108826 .09298706 .13108826 .06298828 .10908508 .06298828 .06808472 .06298828 .011230469 .12599182-.009765625 .17298889-.009765625 .22999573-.009765625 .2709961 .029159546 .2899933 .060073854 .30999757 .018234253 .35798646-.009765625 .4149933-.009765625 .5329895-.009765625 .598999 .111083988 .598999 .14411927 .598999 .14611817 .59799197 .15815735 .5799866 .15815735 .56599429 .15815735 .56399539 .1511383 .5609894 .1421051 .5319977 .05508423 .46099855 .023223877 .4189911 .023223877 .3809967 .023223877 .35398866 .045074464 .35398866 .08708191 .35398866 .1060791 .35899354 .12808228 .36799623 .16316223L.3999939 .2935028C.4099884 .33251954 .4149933 .3505249 .43598939 .37452699 .44999696 .38952638 .47399903 .4084015 .5059967 .4084015 .5109863 .4084015 .54100039 .4084015 .5629883 .39352418Z"/>
<path id="font_7_1" d="M.58898928 .69989016C.58099368 .70988467 .57598879 .7158966 .57199099 .7218933 .54299929 .69989016 .48199464 .6542969 .4149933 .6542969 .37298585 .6542969 .33399964 .67388918 .30099488 .68989565 .25698854 .71188357 .22799683 .7218933 .19400025 .7218933 .12399292 .7218933 .067993167 .67788699 0 .6252899 .0079956059 .6152954 .0129852299 .60928347 .016998291 .60328677 .04598999 .6252899 .10699463 .67089846 .17399597 .67089846 .21598816 .67089846 .25498963 .6512909 .28799439 .6352844 .33198548 .6132965 .36099244 .60328677 .394989 .60328677 .46499635 .60328677 .5209961 .6472931 .58898928 .69989016Z"/>
<path id="font_8_1" d="M.31399537 .47006227C.32099916 .48506166 .32299806 .49606324 .32299806 .50205996 .32299806 .53305056 .29499818 .5590515 .2619934 .5590515 .22200012 .5590515 .20999146 .5240631 .20599365 .51005557L.06599426 .08206177C.06399536 .076049808 .06098938 .0680542 .06098938 .0640564 .06098938 .047058107 .100997928 .0390625 .101989749 .0390625 .11099243 .0390625 .114990238 .048049928 .11898804 .05606079L.31399537 .47006227Z"/>
<path id="font_5_2" d="M.66999819 .5689087C.66999819 .6430359 .6009979 .7050934 .48999024 .7050934 .45999146 .7050934 .42799378 .6960907 .40098573 .6820984 .30899049 .635025 .24299622 .5358429 .22099304 .4466858L.06399536-.18135071C.06098938-.19134522 .07398987-.19433594 .083999637-.19433594 .09298706-.19433594 .09899902-.19334412 .100997928-.18434143 .101989749-.18334961 .1559906 .0332489 .16699219 .07815552 .19699097 .01727295 .2599945-.009719849 .32499696-.009719849 .46299745-.009719849 .6349945 .08514404 .6349945 .23983765 .6349945 .2937317 .61499026 .35160829 .55400088 .3946228 .6380005 .44769288 .66999819 .50579836 .66999819 .5689087M.45298768 .39562989C.44299317 .39361573 .41799928 .39160157 .4079895 .39160157 .397995 .39160157 .37199403 .39160157 .36499024 .3946228 .3809967 .39663697 .39698792 .39764405 .41299439 .39764405 .4249878 .39764405 .43798829 .39663697 .45298768 .39562989M.598999 .57891848C.598999 .50779727 .55599978 .4446869 .5089874 .41766358 .47999574 .42765809 .44999696 .43066407 .41999818 .43066407 .394989 .43066407 .31900025 .43266297 .31900025 .39260865 .31900025 .35560609 .3829956 .3585968 .4079895 .3585968 .43199159 .3585968 .4850006 .3625946 .5059967 .374588 .5339966 .354599 .5569916 .32566834 .5569916 .2657776 .5569916 .13005066 .46499635 .023269654 .32398988 .023269654 .25099183 .023269654 .18899536 .07017517 .18899536 .14701844 .18899536 .15600586 .18899536 .1639862 .19099427 .17196656L.25898744 .44267274C.2829895 .53985598 .3789978 .6720886 .4909973 .6720886 .5509949 .6720886 .598999 .64505007 .598999 .57891848Z"/>
</defs>
<use data-text="F" xlink:href="#font_1_4" transform="matrix(11.95544,0,0,-11.9552,4.1411898,12.250002)"/>
<use data-text="F" xlink:href="#font_1_4" transform="matrix(11.95544,0,0,-11.9552,55.138216,12.250002)"/>
<use data-text="[" xlink:href="#font_2_3" transform="matrix(11.95544,0,0,-11.9552,64.34239,12.250002)"/>
<use data-text="x" xlink:href="#font_1_6" transform="matrix(11.95544,0,0,-11.9552,67.59346,12.250002)"/>
<use data-text="]" xlink:href="#font_2_4" transform="matrix(11.95544,0,0,-11.9552,74.24657,12.250002)"/>
<use data-text="F" xlink:href="#font_1_4" transform="matrix(11.95544,0,0,-11.9552,120.689548,12.250002)"/>
<use data-text="[" xlink:href="#font_2_3" transform="matrix(11.95544,0,0,-11.9552,129.89374,12.250002)"/>
<use data-text="x" xlink:href="#font_1_6" transform="matrix(11.95544,0,0,-11.9552,133.1448,12.250002)"/>
<use data-text="]" xlink:href="#font_2_4" transform="matrix(11.95544,0,0,-11.9552,139.79694,12.250002)"/>
<use data-text="/" xlink:href="#font_1_3" transform="matrix(11.95544,0,0,-11.9552,143.04901,12.250002)"/>
<use data-text="(" xlink:href="#font_2_1" transform="matrix(11.95544,0,0,-11.9552,148.90213,12.250002)"/>
<use data-text="p" xlink:href="#font_1_5" transform="matrix(11.95544,0,0,-11.9552,153.45423,12.250002)"/>
<use data-text=")" xlink:href="#font_2_2" transform="matrix(11.95544,0,0,-11.9552,159.32935,12.250002)"/>
<use data-text="F" xlink:href="#font_1_4" transform="matrix(11.95544,0,0,-11.9552,206.94828,12.250002)"/>
<use data-text="(" xlink:href="#font_2_1" transform="matrix(11.95544,0,0,-11.9552,216.15146,12.250002)"/>
<use data-text="&#x03b1;" xlink:href="#font_1_1" transform="matrix(11.95544,0,0,-11.9552,220.70456,12.250002)"/>
<use data-text=")" xlink:href="#font_2_2" transform="matrix(11.95544,0,0,-11.9552,228.22672,12.250002)"/>
<use data-text="F" xlink:href="#font_1_4" transform="matrix(11.95544,0,0,-11.9552,2.7441712,54.484)"/>
<use data-text="&#x2032;" xlink:href="#font_3_1" transform="matrix(7.9702599,0,0,-7.9701,11.948349,50.145006)"/>
<use data-text="F" xlink:href="#font_1_4" transform="matrix(11.95544,0,0,-11.9552,53.74118,54.484)"/>
<use data-text="&#x2032;" xlink:href="#font_3_1" transform="matrix(7.9702599,0,0,-7.9701,62.94536,50.145006)"/>
<use data-text="[" xlink:href="#font_2_3" transform="matrix(11.95544,0,0,-11.9552,65.74042,54.484)"/>
<use data-text="x" xlink:href="#font_1_6" transform="matrix(11.95544,0,0,-11.9552,68.99248,54.484)"/>
<use data-text="]" xlink:href="#font_2_4" transform="matrix(11.95544,0,0,-11.9552,75.64461,54.484)"/>
<use data-text="F" xlink:href="#font_1_4" transform="matrix(11.95544,0,0,-11.9552,117.894489,54.484)"/>
<use data-text="&#x2032;" xlink:href="#font_3_1" transform="matrix(7.9702599,0,0,-7.9701,127.09868,50.145006)"/>
<use data-text="[" xlink:href="#font_2_3" transform="matrix(11.95544,0,0,-11.9552,129.89376,54.484)"/>
<use data-text="x" xlink:href="#font_1_6" transform="matrix(11.95544,0,0,-11.9552,133.14482,54.484)"/>
<use data-text="]" xlink:href="#font_2_4" transform="matrix(11.95544,0,0,-11.9552,139.79695,54.484)"/>
<use data-text="/" xlink:href="#font_1_3" transform="matrix(11.95544,0,0,-11.9552,143.04903,54.484)"/>
<use data-text="(" xlink:href="#font_2_1" transform="matrix(11.95544,0,0,-11.9552,148.90215,54.484)"/>
<use data-text="p" xlink:href="#font_1_5" transform="matrix(11.95544,0,0,-11.9552,153.45424,54.484)"/>
<use data-text="&#x2032;" xlink:href="#font_3_1" transform="matrix(7.9702599,0,0,-7.9701,159.32936,50.145006)"/>
<use data-text=")" xlink:href="#font_2_2" transform="matrix(11.95544,0,0,-11.9552,162.12541,54.484)"/>
<use data-text="F" xlink:href="#font_1_4" transform="matrix(11.95544,0,0,-11.9552,205.67624,54.484)"/>
<use data-text="&#x2032;" xlink:href="#font_3_1" transform="matrix(7.9702599,0,0,-7.9701,214.87943,50.145006)"/>
<use data-text="(" xlink:href="#font_2_1" transform="matrix(11.95544,0,0,-11.9552,217.67548,54.484)"/>
<use data-text="&#x03b2;" xlink:href="#font_1_2" transform="matrix(11.95544,0,0,-11.9552,222.22757,54.484)"/>
<use data-text=")" xlink:href="#font_2_2" transform="matrix(11.95544,0,0,-11.9552,229.49869,54.484)"/>
<path transform="matrix(1.00002,0,0,-1,118.398479,30.378)" stroke-width=".47818" stroke-linecap="butt" stroke-miterlimit="10" stroke-linejoin="miter" fill="none" stroke="#000000" d="M-99.69939 21.11732H-69.08829"/>
<path transform="matrix(1.00002,0,0,-1,49.547899,9.260681)" stroke-width=".47818" stroke-linecap="round" stroke-linejoin="round" fill="none" stroke="#000000" d="M-2.4866 2.86914C-2.0323 1.14763-1.01996 .33473 0 0-1.01996-.33473-2.0323-1.14763-2.4866-2.86914"/>
<use data-text="i" xlink:href="#font_4_3" transform="matrix(7.9702599,0,0,-7.9701,32.80075,6.4449999)"/>
<path transform="matrix(1.00002,0,0,-1,118.398479,30.378)" stroke-width=".47818" stroke-linecap="butt" stroke-miterlimit="10" stroke-linejoin="miter" fill="none" stroke="#000000" d="M-109.65324 13.54938V-10.28244"/>
<path transform="matrix(0,1,1.00002,0,8.743042,40.89955)" stroke-width=".47818" stroke-linecap="round" stroke-linejoin="round" fill="none" stroke="#000000" d="M-2.4866 2.86914C-2.0323 1.14763-1.01996 .33473 0 0-1.01996-.33473-2.0323-1.14763-2.4866-2.86914"/>
<use data-text="&#x03c3;" xlink:href="#font_4_2" transform="matrix(7.9702599,0,0,-7.9701,.802124,30.699002)"/>
<path transform="matrix(1.00002,0,0,-1,118.398479,30.378)" stroke-width=".47818" stroke-linecap="butt" stroke-miterlimit="10" stroke-linejoin="miter" fill="none" stroke="#000000" d="M-35.5468 21.11732H-3.53813"/>
<path transform="matrix(1.00002,0,0,-1,115.09937,9.260681)" stroke-width=".47818" stroke-linecap="round" stroke-linejoin="round" fill="none" stroke="#000000" d="M-2.4866 2.86914C-2.0323 1.14763-1.01996 .33473 0 0-1.01996-.33473-2.0323-1.14763-2.4866-2.86914"/>
<use data-text="&#x03c0;" xlink:href="#font_4_1" transform="matrix(7.9702599,0,0,-7.9701,93.612979,5.106001)"/>
<use data-text="F" xlink:href="#font_5_3" transform="matrix(5.97772,0,0,-5.9776,98.476078,6.4450018)"/>
<path transform="matrix(1.00002,0,0,-1,118.398479,30.378)" stroke-width=".47818" stroke-linecap="butt" stroke-miterlimit="10" stroke-linejoin="miter" fill="none" stroke="#000000" d="M-52.07845 10.56055V-10.08235"/>
<path transform="matrix(0,1,1.00002,0,66.318988,40.69946)" stroke-width=".47818" stroke-linecap="round" stroke-linejoin="round" fill="none" stroke="#000000" d="M-2.4866 2.86914C-2.0323 1.14763-1.01996 .33473 0 0-1.01996-.33473-2.0323-1.14763-2.4866-2.86914"/>
<path transform="matrix(1.00002,0,0,-1,118.398479,30.378)" stroke-width=".47818" stroke-linecap="butt" stroke-miterlimit="10" stroke-linejoin="miter" fill="none" stroke="#000000" d="M50.83638 21.11732H82.71982"/>
<path transform="matrix(1.00002,0,0,-1,201.35907,9.260681)" stroke-width=".47818" stroke-linecap="round" stroke-linejoin="round" fill="none" stroke="#000000" d="M-2.4866 2.86914C-2.0323 1.14763-1.01996 .33473 0 0-1.01996-.33473-2.0323-1.14763-2.4866-2.86914"/>
<use data-text="e" xlink:href="#font_6_1" transform="matrix(7.9702599,0,0,-7.9701,178.67668,5.4489996)"/>
<use data-text="v" xlink:href="#font_4_4" transform="matrix(7.9702599,0,0,-7.9701,182.44077,5.4489996)"/>
<use data-text="&#x03b1;" xlink:href="#font_5_1" transform="matrix(5.97772,0,0,-5.9776,186.84984,6.4449999)"/>
<path transform="matrix(1.00002,0,0,-1,118.398479,30.378)" stroke-width=".47818" stroke-linecap="butt" stroke-miterlimit="10" stroke-linejoin="miter" fill="none" stroke="#000000" d="M23.88821 10.56055V-10.08235"/>
<path transform="matrix(0,1,1.00002,0,142.28717,40.69946)" stroke-width=".47818" stroke-linecap="round" stroke-linejoin="round" fill="none" stroke="#000000" d="M-2.4866 2.86914C-2.0323 1.14763-1.01996 .33473 0 0-1.01996-.33473-2.0323-1.14763-2.4866-2.86914"/>
<use data-text="&#x03c3;" xlink:href="#font_4_2" transform="matrix(7.9702599,0,0,-7.9701,129.9617,31.596)"/>
<use data-text="x" xlink:href="#font_5_4" transform="matrix(5.97772,0,0,-5.9776,134.80081,32.592004)"/>
<path transform="matrix(1.00002,0,0,-1,118.398479,30.378)" stroke-width=".47818" stroke-linecap="butt" stroke-dasharray="3.34735,1.91277" stroke-miterlimit="10" stroke-linejoin="miter" fill="none" stroke="#000000" d="M101.46516 10.56055V-10.08235"/>
<path transform="matrix(0,1,1.00002,0,219.86566,40.69946)" stroke-width=".47818" stroke-linecap="round" stroke-linejoin="round" fill="none" stroke="#000000" d="M-2.4866 2.86914C-2.0323 1.14763-1.01996 .33473 0 0-1.01996-.33473-2.0323-1.14763-2.4866-2.86914"/>
<use data-text="&#xfffd;" xlink:href="#font_7_1" transform="matrix(7.9702599,0,0,-7.9701,222.89157,33.256)"/>
<use data-text="&#x03c3;" xlink:href="#font_4_2" transform="matrix(7.9702599,0,0,-7.9701,222.68157,33.256)"/>
<path transform="matrix(1.00002,0,0,-1,118.398479,30.378)" stroke-width=".47818" stroke-linecap="butt" stroke-miterlimit="10" stroke-linejoin="miter" fill="none" stroke="#000000" d="M-98.30183-21.11732H-70.48584"/>
<path transform="matrix(1.00002,0,0,-1,48.150346,51.49532)" stroke-width=".47818" stroke-linecap="round" stroke-linejoin="round" fill="none" stroke="#000000" d="M-2.4866 2.86914C-2.0323 1.14763-1.01996 .33473 0 0-1.01996-.33473-2.0323-1.14763-2.4866-2.86914"/>
<use data-text="i" xlink:href="#font_4_3" transform="matrix(7.9702599,0,0,-7.9701,31.457734,60.445)"/>
<use data-text="&#x2032;" xlink:href="#font_8_1" transform="matrix(5.97772,0,0,-5.9776,34.340776,57.632005)"/>
<path transform="matrix(1.00002,0,0,-1,118.398479,30.378)" stroke-width=".47818" stroke-linecap="butt" stroke-miterlimit="10" stroke-linejoin="miter" fill="none" stroke="#000000" d="M-34.14925-21.11732H-6.33324"/>
<path transform="matrix(1.00002,0,0,-1,112.30421,51.49532)" stroke-width=".47818" stroke-linecap="round" stroke-linejoin="round" fill="none" stroke="#000000" d="M-2.4866 2.86914C-2.0323 1.14763-1.01996 .33473 0 0-1.01996-.33473-2.0323-1.14763-2.4866-2.86914"/>
<use data-text="&#x03c0;" xlink:href="#font_4_1" transform="matrix(7.9702599,0,0,-7.9701,91.57194,57.741998)"/>
<use data-text="F" xlink:href="#font_5_3" transform="matrix(5.97772,0,0,-5.9776,96.435039,60.032999)"/>
<use data-text="&#x2032;" xlink:href="#font_8_1" transform="matrix(5.97772,0,0,-5.9776,102.03614,58.317)"/>
<path transform="matrix(1.00002,0,0,-1,118.398479,30.378)" stroke-width=".47818" stroke-linecap="butt" stroke-miterlimit="10" stroke-linejoin="miter" fill="none" stroke="#000000" d="M53.6315-21.11732H81.4475"/>
<path transform="matrix(1.00002,0,0,-1,200.08669,51.49532)" stroke-width=".47818" stroke-linecap="round" stroke-linejoin="round" fill="none" stroke="#000000" d="M-2.4866 2.86914C-2.0323 1.14763-1.01996 .33473 0 0-1.01996-.33473-2.0323-1.14763-2.4866-2.86914"/>
<use data-text="e" xlink:href="#font_6_1" transform="matrix(7.9702599,0,0,-7.9701,179.60269,57.741998)"/>
<use data-text="v" xlink:href="#font_4_4" transform="matrix(7.9702599,0,0,-7.9701,183.36679,57.741998)"/>
<use data-text="&#x03b2;" xlink:href="#font_5_2" transform="matrix(5.97772,0,0,-5.9776,187.77585,59.148)"/>
</svg>
