<svg xmlns="http://www.w3.org/2000/svg" xmlns:xlink="http://www.w3.org/1999/xlink" xmlns:inkscape="http://www.inkscape.org/namespaces/inkscape" version="1.1" width="90" height="92" viewBox="0 0 90 92">
<defs>
<path id="font_1_3" d="M.36698915 .6056366C.37599183 .6436157 .3789978 .6536102 .46699525 .6536102 .49398805 .6536102 .5009918 .6536102 .5009918 .6726074 .5009918 .6826172 .48999024 .6826172 .48599244 .6826172 .46598817 .6826172 .44299317 .680603 .4229889 .680603H.2889862C.269989 .680603 .24798584 .6826172 .22898865 .6826172 .22099304 .6826172 .20999146 .6826172 .20999146 .66360476 .20999146 .6536102 .21899414 .6536102 .23399353 .6536102 .29499818 .6536102 .29499818 .6456146 .29499818 .6346283 .29499818 .6326294 .29499818 .6266327 .29100038 .6116333L.1559906 .07395935C.14698792 .038986207 .14498902 .0289917 .07499695 .0289917 .055999757 .0289917 .04598999 .0289917 .04598999 .010986328 .04598999 0 .051986696 0 .07199097 0H.519989C.5419922 0 .54299929 .0009918213 .5499878 .018997193L.6269989 .23187256C.6289978 .23686219 .6309967 .24285889 .6309967 .24586487 .6309967 .25186158 .6259918 .25585938 .62098696 .25585938 .6199951 .25585938 .61499026 .25585938 .61299136 .25186158 .61099246 .2508545 .61099246 .24885559 .6029968 .22987366 .57099917 .141922 .526001 .0289917 .35699464 .0289917H.26098634C.24699402 .0289917 .24499512 .0289917 .23899842 .02999878 .22799683 .0309906 .22698975 .032989503 .22698975 .040985109 .22698975 .047973634 .22898865 .053970338 .23098755 .06297302L.36698915 .6056366Z"/>
<path id="font_1_1" d="M.29699708 .32548524H.3929901C.46899415 .32548524 .47499085 .30851747 .47499085 .27955628 .47499085 .2665863 .47299195 .25260926 .46798707 .23065186 .46598817 .22665406 .46499635 .22166443 .46499635 .21966553 .46499635 .212677 .46899415 .2086792 .47599793 .2086792 .48399354 .2086792 .4850006 .212677 .4889984 .22865296L.5469971 .4615326C.5469971 .4655304 .5439911 .4715271 .5369873 .4715271 .5279999 .4715271 .5269928 .4675293 .522995 .450531 .5019989 .37548829 .48199464 .3544922 .394989 .3544922H.3039856L.36898805 .6135864C.37799073 .64860537 .37998963 .6516113 .42099 .6516113H.5549927C.6799927 .6516113 .69799807 .6145935 .69799807 .54356387 .69799807 .53756716 .69799807 .5155487 .69499209 .48954774 .69400027 .48553468 .69200137 .47253419 .69200137 .46853639 .69200137 .4605255 .69699099 .4575348 .7029877 .4575348 .70999148 .4575348 .71398928 .4615326 .71598818 .47953797L.7369995 .65460208C.7369995 .65760806 .7389984 .66760256 .7389984 .6696167 .7389984 .680603 .7299957 .680603 .71199038 .680603H.23799134C.21899414 .680603 .20899964 .680603 .20899964 .6626129 .20899964 .6516113 .21598816 .6516113 .23298645 .6516113 .29499818 .6516113 .29499818 .64460757 .29499818 .63360598 .29499818 .6286011 .2939911 .6246033 .29100038 .6135864L.1559906 .073913577C.14698792 .038970949 .14498902 .0289917 .07499695 .0289917 .055999757 .0289917 .04598999 .0289917 .04598999 .010986328 .04598999 0 .054992677 0 .06098938 0 .07998657 0 .099990848 .0019989014 .11898804 .0019989014H.24899292C.2709961 .0019989014 .29499818 0 .31698609 0 .32598878 0 .33799745 0 .33799745 .017990113 .33799745 .0289917 .33198548 .0289917 .30999757 .0289917 .23098755 .0289917 .22898865 .035980226 .22898865 .050949098 .22898865 .05593872 .23098755 .063934329 .23298645 .07092285L.29699708 .32548524Z"/>
<path id="font_1_2" d="M.5 .40376283C.49899293 .4067688 .49499513 .4147644 .49499513 .41775514 .49499513 .4187622 .49598695 .41975404 .5130005 .43273927L.6100006 .5086975C.74398806 .6126404 .7879944 .6476135 .8569946 .6536102 .8639984 .65460208 .8739929 .65460208 .8739929 .6716156 .8739929 .6776123 .87098696 .6826172 .86299136 .6826172 .85198977 .6826172 .83999636 .680603 .82899478 .680603H.79100039C.7599945 .680603 .72698977 .6826172 .69699099 .6826172 .6899872 .6826172 .6779938 .6826172 .6779938 .6646118 .6779938 .65460208 .68499758 .6536102 .69099429 .6536102 .70199587 .6526184 .71499636 .6486206 .71499636 .6346283 .71499636 .6146393 .68499758 .59065249 .6769867 .58465579L.2849884 .2798462 .36799623 .6096344C.3769989 .6436157 .3789978 .6536102 .44999696 .6536102 .46899415 .6536102 .47799684 .6536102 .47799684 .6726074 .47799684 .6826172 .46798707 .6826172 .46299745 .6826172 .44499208 .6826172 .42399598 .680603 .40499879 .680603H.2869873C.2689972 .680603 .24699402 .6826172 .22898865 .6826172 .22099304 .6826172 .20999146 .6826172 .20999146 .66360476 .20999146 .6536102 .21899414 .6536102 .23399353 .6536102 .29499818 .6536102 .29499818 .6456146 .29499818 .6346283 .29499818 .6326294 .29499818 .6266327 .29100038 .6116333L.1559906 .07395935C.14698792 .038986207 .14498902 .0289917 .07499695 .0289917 .055999757 .0289917 .04598999 .0289917 .04598999 .010986328 .04598999 0 .054992677 0 .06098938 0 .07998657 0 .099990848 .0019989014 .11898804 .0019989014H.23599243C.25498963 .0019989014 .27598573 0 .29499818 0 .30299378 0 .31399537 0 .31399537 .018997193 .31399537 .0289917 .30499269 .0289917 .2899933 .0289917 .22898865 .0289917 .22898865 .036987306 .22898865 .04698181 .22898865 .053970338 .23498535 .07896423 .23899842 .094955448L.27799989 .24986267 .42999269 .36878968C.45899964 .30482484 .5119934 .17689514 .5529938 .07896423 .55599978 .07296753 .55799868 .066970828 .55799868 .05996704 .55799868 .02999878 .5179901 .0289917 .5089874 .0289917 .5 .0289917 .48999024 .0289917 .48999024 .009994507 .48999024 0 .5009918 0 .5039978 0 .5389862 0 .57598879 .0019989014 .61099246 .0019989014H.6589966C.673996 .0019989014 .69099429 0 .70599368 0 .71199038 0 .72299197 0 .72299197 .018997193 .72299197 .0289917 .71398928 .0289917 .70399478 .0289917 .6669922 .02999878 .6539917 .037994386 .6389923 .07395935L.5 .40376283Z"/>
<path id="font_2_1" d="M.2979889 .6242981C.2979889 .64630129 .28199769 .66230776 .25898744 .66230776 .23298645 .66230776 .20399475 .63830569 .20399475 .6083069 .20399475 .5863037 .21998596 .5703125 .24299622 .5703125 .2689972 .5703125 .2979889 .5942993 .2979889 .6242981M.1519928 .25732423 .09799194 .119277957C.09298706 .104263309 .08799744 .09225464 .08799744 .07525635 .08799744 .026229859 .12599182-.009765625 .1789856-.009765625 .27598573-.009765625 .31698609 .13027954 .31698609 .14328003 .31698609 .1532898 .30899049 .15628052 .3019867 .15628052 .2899933 .15628052 .28799439 .14927674 .2849884 .13928223 .2619934 .059249879 .22099304 .018234253 .18099976 .018234253 .16899109 .018234253 .15699768 .023223877 .15699768 .050247194 .15699768 .07424927 .1639862 .09225464 .1769867 .12327576 .18699646 .15028382 .19699097 .17729187 .20799256 .20431519L.23899842 .28533937C.24798584 .3083496 .2599945 .33937074 .2599945 .35636903 .2599945 .4064026 .21998596 .44140626 .16899109 .44140626 .07199097 .44140626 .02999878 .30134584 .02999878 .28834535 .02999878 .27934266 .036987306 .27534486 .04499817 .27534486 .057998659 .27534486 .05899048 .28134156 .06199646 .29135133 .08999634 .38638307 .13598633 .4133911 .1659851 .4133911 .17999268 .4133911 .18998719 .4084015 .18998719 .38038636 .18998719 .3703766 .18899536 .35636903 .1789856 .32635499L.1519928 .25732423Z"/>
<path id="font_3_2" d="M.43399049 .6006317C.44198609 .63360598 .44400025 .64260867 .54599 .64260867 .56999209 .64260867 .58200076 .64260867 .58200076 .66760256 .58200076 .6706085 .5799866 .6826172 .5649872 .6826172 .54100039 .6826172 .5149994 .6796112 .4909973 .6796112 .46398927 .6796112 .43499757 .6786041 .4079895 .6786041 .3849945 .6786041 .3619995 .6796112 .33898927 .6796112 .31599427 .6796112 .2899933 .6826172 .2669983 .6826172 .26098634 .6826172 .24499512 .6826172 .24499512 .65760806 .24499512 .64260867 .2579956 .64260867 .2769928 .64260867 .29499818 .64260867 .31999208 .64260867 .34098817 .63560488 .34098817 .62561038 .34098817 .6196289 .33699037 .6036377L.20599365 .082962039C.19699097 .04698181 .19499207 .039993287 .11999512 .039993287 .09700012 .039993287 .083999637 .039993287 .083999637 .01499939 .083999637 0 .09700012 0 .114990238 0H.644989C.67099 0 .6719971 .0009918213 .67900088 .019989014 .68899539 .04498291 .7669983 .24485779 .7669983 .2508545 .7669983 .260849 .7589874 .2668457 .7480011 .2668457 .7350006 .2668457 .7319946 .25985719 .72698977 .24786377 .6819916 .13493347 .6319885 .039993287 .45199586 .039993287H.32899476C.30999757 .039993287 .30799867 .039993287 .29599 .04298401L.43399049 .6006317Z"/>
<path id="font_3_1" d="M.6069946 .40176393C.60598757 .40275575 .6009979 .41275025 .6009979 .41375733 .6009979 .41474916 .60198977 .41575624 .6179962 .42674256 .7200012 .4967041 .8549957 .5886383 .9109955 .6156311 .94499209 .63160708 .97299197 .64060977 1.0059967 .64260867 1.0159912 .6436157 1.0289917 .64460757 1.0289917 .66760256 1.0289917 .6746063 1.022995 .6816101 1.0149994 .6816101 .9929962 .6816101 .96499636 .6786041 .94099429 .6786041 .9259949 .6786041 .8919983 .6786041 .8769989 .6796112 .86499026 .680603 .8279877 .6826172 .81799319 .6826172 .81199648 .6826172 .79499819 .6826172 .79499819 .65760806 .79499819 .6436157 .8089905 .64260867 .81199648 .64260867 .83499148 .64160159 .83499148 .63461306 .83499148 .62960818 .83499148 .6166229 .81399539 .6006317 .80999758 .597641 .8069916 .5956421 .80599978 .594635 .8049927 .5936432 .80400088 .5926361 .79499819 .5866394 .7919922 .5846405L.35699464 .29083253 .43499757 .6016388C.44299317 .63461306 .44499208 .64260867 .5249939 .64260867 .54299929 .64260867 .5569916 .64260867 .5569916 .66760256 .5569916 .6726074 .55400088 .6826172 .5399933 .6826172 .5189972 .6826172 .49499513 .6796112 .47299195 .6796112 .45098878 .6796112 .42799378 .6786041 .4059906 .6786041 .3829956 .6786041 .3600006 .6796112 .33699037 .6796112 .31498719 .6796112 .2899933 .6826172 .2679901 .6826172 .2619934 .6826172 .24598694 .6826172 .24598694 .65760806 .24598694 .64260867 .25898744 .64260867 .27799989 .64260867 .29599 .64260867 .32099916 .64260867 .34199525 .63560488 .34199525 .62561038 .34199525 .6196289 .33799745 .6036377L.20698548 .082962039C.19799805 .04698181 .19599915 .039993287 .12098694 .039993287 .09799194 .039993287 .084991458 .039993287 .084991458 .01499939 .084991458 .0069885256 .09098816 0 .101989749 0 .12298584 0 .14698792 .0029907227 .16899109 .0029907227 .19198609 .0029907227 .21398926 .0039978029 .23599243 .0039978029 .25898744 .0039978029 .28199769 .0029907227 .30499269 .0029907227 .32699586 .0029907227 .35198976 0 .37298585 0 .37998963 0 .3959961 0 .3959961 .024993897 .3959961 .039993287 .38398744 .039993287 .36299134 .039993287 .36099244 .039993287 .34298707 .039993287 .32499696 .041992189 .30499269 .04399109 .29899598 .04399109 .29899598 .054977418 .29899598 .05897522 .30599977 .083969119 .30899049 .09895325 .31399537 .11593628 .31399537 .11793518 .31999208 .141922 .33399964 .19389344 .33399964 .19589234 .34498597 .24386597L.5189972 .36079408 .68299868 .06896973C.68299868 .055984498 .68299868 .040985109 .6380005 .039993287 .6259918 .039993287 .61099246 .039993287 .61099246 .01499939 .61099246 .0069885256 .61698916 0 .6279907 0 .6569977 0 .73098757 .0039978029 .7599945 .0039978029 .7769928 .0039978029 .7939911 .0029907227 .8109894 .0029907227 .8279877 .0029907227 .8470001 0 .86299136 0 .8739929 0 .8849945 .005996704 .8849945 .024993897 .8849945 .039993287 .86898806 .039993287 .86099246 .039993287 .8089905 .040985109 .8009949 .054977418 .78900149 .07696533L.6069946 .40176393Z"/>
</defs>
<use data-text="L" xlink:href="#font_1_3" transform="matrix(11.955917,0,0,-11.9552,2.1715546,11.540001)"/>
<path transform="matrix(1.00006,0,0,-1,-110.61722,55.924)" stroke-width=".4782" stroke-linecap="butt" stroke-miterlimit="10" stroke-linejoin="miter" fill="none" stroke="#000000" d="M189.863 54.227H199.066"/>
<use data-text="F" xlink:href="#font_1_1" transform="matrix(11.955917,0,0,-11.9552,79.25717,11.540001)"/>
<use data-text="K" xlink:href="#font_1_2" transform="matrix(11.955917,0,0,-11.9552,.7444687,52.378999)"/>
<path transform="matrix(1.00006,0,0,-1,-110.61722,55.923997)" stroke-width=".4782" stroke-linecap="butt" stroke-miterlimit="10" stroke-linejoin="miter" fill="none" stroke="#000000" d="M189.863 13.388H199.066"/>
<use data-text="F" xlink:href="#font_1_1" transform="matrix(11.955917,0,0,-11.9552,79.25717,52.378999)"/>
<use data-text="F" xlink:href="#font_1_1" transform="matrix(11.955917,0,0,-11.9552,1.5515137,90.828)"/>
<use data-text="F" xlink:href="#font_1_1" transform="matrix(11.955917,0,0,-11.9552,79.25717,90.828)"/>
<path transform="matrix(1.00006,0,0,-1,44.604097,45.904)" stroke-width=".47818" stroke-linecap="butt" stroke-dasharray="3.34735,1.91277" stroke-miterlimit="10" stroke-linejoin="miter" fill="none" stroke="#000000" d="M-27.39153 37.35287H28.8223"/>
<path transform="matrix(-1.00006,-0,0,-1,17.210925,8.551128)" stroke-width=".47818" stroke-linecap="round" stroke-miterlimit="10" stroke-linejoin="miter" fill="none" stroke="#000000" d="M0 2.34314C.8187 2.34314 1.48238 1.8186 1.48238 1.17157 1.48238 .52452 .8187 0 0 0"/>
<path transform="matrix(1.00006,0,0,-1,73.66723,8.551128)" stroke-width=".47818" stroke-linecap="round" stroke-linejoin="round" fill="none" stroke="#000000" d="M-2.4866 2.86914C-2.0323 1.14763-1.01996 .33473 0 0-1.01996-.33473-2.0323-1.14763-2.4866-2.86914"/>
<path transform="matrix(1.00006,0,0,-1,44.604097,45.904)" d="M-6.7027 31.47229H6.89016V43.23347H-6.7027Z" fill="#ffffff"/>
<use data-text="i" xlink:href="#font_2_1" transform="matrix(7.9705779,0,0,-7.9701,40.477849,10.515999)"/>
<use data-text="L" xlink:href="#font_3_2" transform="matrix(5.9779589,0,0,-5.9776,43.36102,11.855)"/>
<path transform="matrix(1.00006,0,0,-1,44.604097,45.904)" stroke-width=".47818" stroke-linecap="butt" stroke-miterlimit="10" stroke-linejoin="miter" fill="none" stroke="#000000" d="M-38.4473 29.78494V6.27286"/>
<path transform="matrix(1.00006,0,0,-1,44.604097,45.904)" stroke-width="2.7969" stroke-linecap="butt" stroke-miterlimit="10" stroke-linejoin="miter" fill="none" stroke="#000000" d="M39.25435 29.78494V8.66383"/>
<path transform="matrix(1.00006,0,0,-1,44.604097,45.904)" stroke-width="1.84052" stroke-linecap="butt" stroke-miterlimit="10" stroke-linejoin="miter" fill="none" stroke="#ffffff" d="M39.25435 29.78494V8.66383"/>
<path transform="matrix(1.00006,0,0,-1,44.604097,45.904)" stroke-width=".47818" stroke-linecap="butt" stroke-miterlimit="10" stroke-linejoin="miter" fill="none" stroke="#000000" d="M-25.9649-3.48686H28.8223"/>
<path transform="matrix(-1.00006,-0,0,-1,18.63764,49.390859)" stroke-width=".47818" stroke-linecap="round" stroke-miterlimit="10" stroke-linejoin="miter" fill="none" stroke="#000000" d="M0 2.34314C.8187 2.34314 1.48238 1.8186 1.48238 1.17157 1.48238 .52452 .8187 0 0 0"/>
<path transform="matrix(1.00006,0,0,-1,73.66723,49.390859)" stroke-width=".47818" stroke-linecap="round" stroke-linejoin="round" fill="none" stroke="#000000" d="M-2.4866 2.86914C-2.0323 1.14763-1.01996 .33473 0 0-1.01996-.33473-2.0323-1.14763-2.4866-2.86914"/>
<path transform="matrix(1.00006,0,0,-1,44.604097,45.904)" d="M-6.73245-9.36745H8.346531V2.3937302H-6.73245Z" fill="#ffffff"/>
<use data-text="i" xlink:href="#font_2_1" transform="matrix(7.9705779,0,0,-7.9701,40.447847,51.356)"/>
<use data-text="K" xlink:href="#font_3_1" transform="matrix(5.9779589,0,0,-5.9776,43.331018,52.695)"/>
<path transform="matrix(1.00006,0,0,-1,44.604097,45.904)" stroke-width=".47818" stroke-linecap="butt" stroke-miterlimit="10" stroke-linejoin="miter" fill="none" stroke="#000000" d="M-38.4473-11.0548V-32.1759"/>
<path transform="matrix(1.00006,0,0,-1,44.604097,45.904)" stroke-width=".47818" stroke-linecap="butt" stroke-miterlimit="10" stroke-linejoin="miter" fill="none" stroke="#000000" d="M39.25435-11.0548V-32.1759"/>
<path transform="matrix(1.00006,0,0,-1,44.604097,45.904)" stroke-width="2.7969" stroke-linecap="butt" stroke-miterlimit="10" stroke-linejoin="miter" fill="none" stroke="#000000" d="M-28.49344-41.93564H29.30048"/>
<path transform="matrix(1.00006,0,0,-1,44.604097,45.904)" stroke-width="1.84052" stroke-linecap="butt" stroke-miterlimit="10" stroke-linejoin="miter" fill="none" stroke="#ffffff" d="M-28.49344-41.93564H29.30048"/>
</svg>
