<svg xmlns="http://www.w3.org/2000/svg" xmlns:xlink="http://www.w3.org/1999/xlink" xmlns:inkscape="http://www.inkscape.org/namespaces/inkscape" version="1.1" width="200" height="54" viewBox="0 0 200 54">
<defs>
<path id="font_1_4" d="M.30299378 .3244629H.3999939C.47499085 .3244629 .48298646 .30848695 .48298646 .27954103 .48298646 .2725525 .48298646 .26057435 .47599793 .2306366 .47399903 .22564698 .47299195 .22164917 .47299195 .21965027 .47299195 .21166992 .47898866 .20767212 .4850006 .20767212 .49499513 .20767212 .49499513 .21066284 .5 .2286377L.5549927 .44551087C.55799868 .45651246 .55799868 .45851136 .55799868 .46151734 .55799868 .46351625 .55599978 .47251893 .54599 .47251893 .5359955 .47251893 .5349884 .46751405 .5309906 .45150758 .5099945 .37347413 .4869995 .35546876 .4019928 .35546876H.31098939L.375 .6095886C.38398744 .64460757 .3849945 .64860537 .42900086 .64860537H.5609894C.6839905 .64860537 .70700076 .6156006 .70700076 .53855898 .70700076 .5155487 .70700076 .51153567 .70399478 .4845276 .70199587 .4715271 .70199587 .46951295 .70199587 .46652223 .70199587 .46151734 .7049866 .45451356 .71398928 .45451356 .72499087 .45451356 .7259979 .46051026 .7279968 .4795227L.7480011 .65260317C.7509918 .6796112 .74598696 .6796112 .72099307 .6796112H.23098755C.21099854 .6796112 .20098877 .6796112 .20098877 .65960696 .20098877 .64860537 .20999146 .64860537 .22898865 .64860537 .2659912 .64860537 .2939911 .64860537 .2939911 .6306 .2939911 .6266022 .2939911 .6246033 .2889862 .60658267L.15699768 .07791138C.14698792 .038970949 .14498902 .0309906 .06599426 .0309906 .04899597 .0309906 .037994386 .0309906 .037994386 .011993408 .037994386 0 .049987794 0 .052993776 0 .08198547 0 .1559906 .0029907227 .18499756 .0029907227 .21798706 .0029907227 .30099488 0 .33399964 0 .34298707 0 .35499574 0 .35499574 .018997193 .35499574 .026992798 .34899903 .0289917 .34899903 .02999878 .34599305 .0309906 .34399415 .0309906 .32099916 .0309906 .29899598 .0309906 .2939911 .0309906 .2689972 .032989503 .23999024 .035980226 .23699951 .039978029 .23699951 .052947999 .23699951 .0549469 .23699951 .060943605 .24099732 .075912479L.30299378 .3244629Z"/>
<path id="font_2_3" d="M.25498963-.25V-.21000672H.1579895V.70999148H.25498963V.75H.117996219V-.25H.25498963Z"/>
<path id="font_1_6" d="M.33399964 .30233766C.33999635 .32835389 .36299134 .42037965 .43299867 .42037965 .43798829 .42037965 .46199037 .42037965 .48298646 .40734864 .45498658 .402359 .43499757 .37734986 .43499757 .35334779 .43499757 .33735658 .44599916 .31835938 .47299195 .31835938 .49499513 .31835938 .5269928 .3363495 .5269928 .37635804 .5269928 .42837525 .46798707 .4423828 .43399049 .4423828 .37599183 .4423828 .34098817 .38935853 .32899476 .36634828 .3039856 .43237306 .25 .4423828 .22099304 .4423828 .116989139 .4423828 .05999756 .3133545 .05999756 .28834535 .05999756 .27833558 .069992069 .27833558 .07199097 .27833558 .07998657 .27833558 .08299255 .28033448 .084991458 .28933717 .11898804 .39535523 .18499756 .42037965 .21899414 .42037965 .23799134 .42037965 .272995 .4113617 .272995 .35334779 .272995 .32235719 .2559967 .25532533 .21899414 .11528015 .20298767 .053268434 .16799927 .011245728 .12399292 .011245728 .117996219 .011245728 .09498596 .011245728 .07398987 .024276734 .09899902 .029266358 .12098694 .05027771 .12098694 .07827759 .12098694 .105270389 .09899902 .11328125 .083999637 .11328125 .053985597 .11328125 .0289917 .08728027 .0289917 .055267335 .0289917 .009246826 .07899475-.0107421879 .12298584-.0107421879 .18899536-.0107421879 .22499085 .059280397 .22799683 .0652771 .23999024 .028274537 .27598573-.0107421879 .33599855-.0107421879 .43899537-.0107421879 .49598695 .118270877 .49598695 .14328003 .49598695 .1532898 .4869995 .1532898 .48399354 .1532898 .47499085 .1532898 .47299195 .14929199 .47099305 .14228821 .43798829 .03527832 .36999513 .011245728 .33799745 .011245728 .29899598 .011245728 .2829895 .043273927 .2829895 .07727051 .2829895 .09927368 .2889862 .121276859 .2999878 .16529846L.33399964 .30233766Z"/>
<path id="font_2_4" d="M.15899658 .75H.021987915V.70999148H.11898804V-.21000672H.021987915V-.25H.15899658V.75Z"/>
<path id="font_1_3" d="M.43899537 .71199038C.44400025 .72499087 .44400025 .72898867 .44400025 .7299957 .44400025 .7409973 .43499757 .75 .42399598 .75 .4169922 .75 .4099884 .746994 .40699769 .7409973L.05999756-.21200562C.054992677-.2250061 .054992677-.2290039 .054992677-.23001099 .054992677-.24101258 .06399536-.25 .07499695-.25 .08799744-.25 .09098816-.24301148 .09700012-.22601319L.43899537 .71199038Z"/>
<path id="font_2_1" d="M.33099366-.2400055C.33099366-.23701477 .33099366-.23500061 .31399537-.21800232 .18899536-.0920105 .15699768 .09700012 .15699768 .25 .15699768 .42399598 .19499207 .59799197 .31799317 .72299197 .33099366 .73498538 .33099366 .7369995 .33099366 .73999026 .33099366 .746994 .32699586 .75 .32099916 .75 .31098939 .75 .22099304 .6819916 .1619873 .5549927 .11099243 .44499208 .09899902 .33399964 .09899902 .25 .09899902 .17199707 .10998535 .050994874 .16499329-.06201172 .22499085-.18501282 .31098939-.25 .32099916-.25 .32699586-.25 .33099366-.24700928 .33099366-.2400055Z"/>
<path id="font_1_5" d="M.04499817-.122177127C.036987306-.15631104 .034988405-.16334534-.009002686-.16334534-.021011353-.16334534-.03201294-.16334534-.03201294-.18234253-.03201294-.19033814-.027008057-.19433594-.019012452-.19433594 .0079956059-.19433594 .036987306-.19134522 .06498718-.19134522 .09799194-.19134522 .13198853-.19433594 .1639862-.19433594 .16899109-.19433594 .18199158-.19433594 .18199158-.17434693 .18199158-.16334534 .17199707-.16334534 .1579895-.16334534 .10798645-.16334534 .10798645-.15631104 .10798645-.14727783 .10798645-.13523865 .1499939 .028259278 .15699768 .053268434 .16999817 .024261475 .19799805-.0107421879 .24899292-.0107421879 .36499024-.0107421879 .48999024 .13528443 .48999024 .28233338 .48999024 .37635804 .43299867 .4423828 .35699464 .4423828 .30699159 .4423828 .25898744 .40637208 .22599793 .36735536 .21598816 .42137147 .17298889 .4423828 .13598633 .4423828 .08999634 .4423828 .070999149 .4033661 .06199646 .38536073 .04399109 .35134889 .0309906 .29133607 .0309906 .28833009 .0309906 .27833558 .040985109 .27833558 .042999269 .27833558 .052993776 .27833558 .053985597 .2793274 .05999756 .30133058 .07699585 .37236024 .09700012 .42037965 .1329956 .42037965 .1499939 .42037965 .1639862 .41236878 .1639862 .37435914 .1639862 .35134889 .16099549 .3403473 .15699768 .323349L.04499817-.122177127M.22099304 .3123474C.22799683 .33935548 .25498963 .36735536 .272995 .38235475 .30799867 .41337586 .33699037 .42037965 .35398866 .42037965 .3939972 .42037965 .41799928 .38536073 .41799928 .32633973 .41799928 .26733399 .3849945 .15229798 .36698915 .11428833 .33299256 .044265748 .2849884 .011245728 .24798584 .011245728 .18199158 .011245728 .16899109 .0942688 .16899109 .10028076 .16899109 .10227966 .16899109 .104278568 .17199707 .11628723L.22099304 .3123474Z"/>
<path id="font_2_2" d="M.2889862 .25C.2889862 .32798768 .27799989 .44898988 .22299195 .56199648 .16299439 .68499758 .07699585 .75 .066986087 .75 .06098938 .75 .056991579 .74598696 .056991579 .73999026 .056991579 .7369995 .056991579 .73498538 .07598877 .71699526 .17399597 .6179962 .23098755 .45899964 .23098755 .25 .23098755 .07899475 .19400025-.09700012 .069992069-.2230072 .056991579-.23500061 .056991579-.23701477 .056991579-.2400055 .056991579-.2460022 .06098938-.25 .066986087-.25 .07699585-.25 .16699219-.18200684 .22599793-.055007936 .2769928 .054992677 .2889862 .16600037 .2889862 .25Z"/>
<path id="font_1_1" d="M.47698976 .23631287C.47698976 .39337159 .38398744 .4423828 .30999757 .4423828 .17298889 .4423828 .040985109 .29933167 .040985109 .15829468 .040985109 .06526184 .100997928-.0107421879 .20298767-.0107421879 .2659912-.0107421879 .33799745 .012252808 .4139862 .073272708 .4269867 .020248414 .45999146-.0107421879 .5049896-.0107421879 .55799868-.0107421879 .58898928 .044265748 .58898928 .060272218 .58898928 .06726074 .58299258 .07026672 .57699587 .07026672 .56999209 .07026672 .5669861 .06726074 .56399539 .060272218 .54599 .011245728 .5099945 .011245728 .5079956 .011245728 .47698976 .011245728 .47698976 .089279178 .47698976 .11328125 .47698976 .1342926 .47698976 .1362915 .4869995 .14828491 .58099368 .2663269 .60198977 .38235475 .60198977 .38336183 .60198977 .38536073 .6009979 .39337159 .58999636 .39337159 .5799866 .39337159 .5799866 .3903656 .57499697 .37236024 .5569916 .30934144 .5239868 .23332215 .47698976 .17430115V.23631287M.4099884 .09927368C.32199098 .022247315 .24499512 .011245728 .20498657 .011245728 .14498902 .011245728 .114990238 .056259157 .114990238 .120285037 .114990238 .16929627 .14099121 .2773285 .17298889 .32833863 .21998596 .4013672 .27398683 .42037965 .30899049 .42037965 .4079895 .42037965 .4079895 .28933717 .4079895 .21130371 .4079895 .17430115 .4079895 .11628723 .4099884 .09927368Z"/>
<path id="font_3_1" d="M.2899933 .4720459C.2979889 .4890442 .29899598 .49705506 .29899598 .5040436 .29899598 .53504946 .2709961 .5590515 .23999024 .5590515 .20199585 .5590515 .18998719 .52804568 .18499756 .51205447L.052993776 .07901001C.051986696 .07701111 .04798889 .06401062 .04798889 .06300354 .04798889 .05101013 .07899475 .041015626 .08699036 .041015626 .09399414 .041015626 .09498596 .043014528 .101989749 .058013917L.2899933 .4720459Z"/>
<path id="font_1_2" d="M.57499697 .5688782C.57499697 .64401248 .519989 .70606997 .43899537 .70606997 .3809967 .70606997 .35299684 .6900635 .31799317 .664032 .2630005 .62397769 .20799256 .5268097 .18899536 .4506836L.02999878-.18434143C.0289917-.18833924 .033996583-.19433594 .041992189-.19433594 .049987794-.19433594 .052993776-.19233704 .053985597-.18934632L.12399292 .08711243C.14299011 .027236939 .18699646-.009719849 .2599945-.009719849 .33299256-.009719849 .4079895 .025238038 .45298768 .06915283 .5009918 .11505127 .5329895 .17892456 .5329895 .2527771 .5329895 .32461549 .49598695 .37652589 .45999146 .40159608 .5179901 .43466188 .57499697 .49676515 .57499697 .5688782M.394989 .40260316C.38198854 .3975525 .37098695 .39553834 .34700013 .39553834 .33299256 .39553834 .31298829 .39453126 .30299378 .39956666 .30499269 .4096527 .34098817 .4076538 .35198976 .4076538 .37298585 .4076538 .38198854 .4076538 .394989 .40260316M.5189972 .59191897C.5189972 .5218048 .48098756 .44969178 .42900086 .4186554 .4019928 .4286499 .38198854 .43066407 .35198976 .43066407 .33099366 .43066407 .2749939 .43165589 .2749939 .39855958 .27398683 .37052918 .32598878 .3735199 .34399415 .3735199 .3809967 .3735199 .3959961 .37452699 .42599488 .3865204 .46398927 .35057069 .46899415 .31962586 .46998597 .27372743 .47200013 .21585083 .44799806 .14100647 .41999818 .1020813 .3809967 .048202516 .31399537 .012268066 .25698854 .012268066 .18099976 .012268066 .14299011 .07014465 .14299011 .14100647 .14299011 .15098572 .14299011 .16595459 .147995 .184906L.21199036 .43766786C.23399353 .5238037 .30599977 .68307498 .42599488 .68307498 .48399354 .68307498 .5189972 .6520233 .5189972 .59191897Z"/>
<path id="font_4_3" d="M.32398988 .6253052C.32398988 .64131167 .31199647 .66329959 .28399659 .66329959 .25698854 .66329959 .22799683 .6372986 .22799683 .6083069 .22799683 .5913086 .24099732 .5703125 .2679901 .5703125 .29699708 .5703125 .32398988 .5983124 .32398988 .6253052M.11999512 .117263797C.115997318 .104263309 .11099243 .09225464 .11099243 .07525635 .11099243 .02822876 .15098572-.009765625 .20599365-.009765625 .30599977-.009765625 .34999085 .12828064 .34999085 .14328003 .34999085 .15628052 .33699037 .15628052 .33399964 .15628052 .31999208 .15628052 .31900025 .15028382 .31498719 .13928223 .2919922 .059249879 .24798584 .018234253 .20899964 .018234253 .18899536 .018234253 .18399048 .031234742 .18399048 .053237916 .18399048 .07624817 .19099427 .09526062 .19999695 .117263797 .20999146 .14428711 .22099304 .17129517 .23199463 .1973114 .24099732 .22131348 .2769928 .3123474 .2809906 .32435609 .28399659 .33436585 .2869873 .3463745 .2869873 .35636903 .2869873 .4033966 .24699402 .44140626 .19198609 .44140626 .09298706 .44140626 .04699707 .3053589 .04699707 .28834535 .04699707 .27534486 .06098938 .27534486 .06399536 .27534486 .07798767 .27534486 .07899475 .28033448 .08198547 .29135133 .10798645 .37738038 .1519928 .4133911 .18899536 .4133911 .20498657 .4133911 .21398926 .4053955 .21398926 .37838746 .21398926 .3553772 .20799256 .34036256 .18299866 .27833558L.11999512 .117263797Z"/>
<path id="font_4_2" d="M.58499148 .36265565C.60198977 .36265565 .61099246 .36265565 .621994 .37065126 .6349945 .38165284 .6380005 .3956604 .6380005 .40264894 .6380005 .43066407 .6119995 .43066407 .59498599 .43066407H.33898927C.1789856 .43066407 .05899048 .2728119 .05899048 .15299988 .05899048 .060150148 .12799073-.009765625 .22999573-.009765625 .35598756-.009765625 .5 .1040802 .5 .25683595 .5 .2728119 .5 .31773377 .46998597 .36265565H.58499148M.23098755 .018234253C.1769867 .018234253 .13198853 .0541687 .13198853 .12504578 .13198853 .15499878 .1499939 .36265565 .32199098 .36265565 .37298585 .36265565 .4249878 .34368897 .4249878 .267807 .4249878 .24984741 .41600038 .1599884 .36698915 .09310913 .32499696 .03819275 .2689972 .018234253 .23098755 .018234253Z"/>
<path id="font_4_1" d="M.31098939 .36265565H.42999269C.4149933 .30274964 .3929901 .2118988 .3929901 .13302613 .3929901 .09309387 .397995 .06613159 .4039917 .044174196 .41999818-.0057678224 .43299867-.009765625 .44898988-.009765625 .47200013-.009765625 .49598695 .011230469 .49598695 .035186769 .49598695 .043182374 .49398805 .047164918 .48799134 .057159425 .46899415 .09408569 .45098878 .15100098 .45098878 .23286438 .45098878 .25183106 .45098878 .29177857 .46499635 .36265565H.58999636C.60798647 .36265565 .6159973 .36265565 .6269989 .37065126 .6409912 .380661 .6439972 .39665223 .6439972 .4016571 .6439972 .43066407 .6179962 .43066407 .6009979 .43066407H.22399903C.18299866 .43066407 .15499878 .42166139 .10998535 .37965394 .083999637 .35665895 .04499817 .30274964 .04499817 .2937622 .04499817 .28178407 .057998659 .28178407 .06199646 .28178407 .07299805 .28178407 .07398987 .28378297 .07998657 .2927704 .1309967 .36265565 .19299317 .36265565 .21499634 .36265565H.27598573C.24499512 .25283814 .19099427 .13502503 .16099549 .07511902 .15499878 .062149049 .14498902 .04118347 .14199829 .03718567 .14099121 .033187868 .13899231 .029190064 .13899231 .022201539 .13899231 .006225586 .15098572-.009765625 .17399597-.009765625 .21398926-.009765625 .22499085 .035186769 .24899292 .12504578L.31098939 .36265565Z"/>
<path id="font_5_3" d="M.40699769 .31729127H.5309906C.6199951 .31729127 .6279907 .3032837 .6279907 .2702484 .6279907 .25422669 .6230011 .22920227 .62098696 .22419739 .62098696 .2211914 .6199951 .2191925 .6199951 .21717835 .6199951 .21118164 .6239929 .2001648 .6409912 .2001648 .6549988 .2001648 .6599884 .2041626 .6639862 .2211914L.72299197 .46211244C.72299197 .46310426 .72299197 .4790802 .7029877 .4790802 .6859894 .4790802 .6839905 .4730835 .6799927 .45611573 .6569977 .37727357 .6299896 .3623047 .5349884 .3623047H.41799928L.47799684 .60084536C.48599244 .63179019 .48599244 .63378909 .5279999 .63378909H.71099856C.8529968 .63378909 .8880005 .60783389 .8880005 .50901797 .8880005 .48706056 .8849945 .46110536 .8849945 .45910646 .8849945 .44514466 .894989 .44015504 .9059906 .44015504 .9249878 .44015504 .9259949 .4491272 .9279938 .46809388L.94400027 .6457825 .94599917 .66078189C.94599917 .67878726 .93099978 .67878726 .9129944 .67878726H.31098939C.29100038 .67878726 .27598573 .67878726 .27598573 .65078738 .27598573 .63378909 .28799439 .63378909 .31298829 .63378909 .32299806 .63378909 .35598756 .63378909 .3769989 .62779238 .3769989 .6158142 .3769989 .6138153 .37399293 .60284426L.24398804 .08303833C.23599243 .053009035 .23498535 .04499817 .1579895 .04499817 .1329956 .04499817 .116989139 .04499817 .116989139 .016998291 .116989139 .008987427 .12399292 0 .1349945 0 .15699768 0 .18199158 .0029907227 .20399475 .0029907227 .22898865 .0029907227 .25498963 .0039978029 .2809906 .0039978029 .30899049 .0039978029 .33599855 .0029907227 .3639984 .0029907227 .3909912 .0029907227 .41999818 0 .44699098 0 .45298768 0 .47299195 0 .47299195 .027999878 .47299195 .04499817 .45899964 .04499817 .43299867 .04499817 .40899659 .04499817 .40098573 .04499817 .375 .04699707 .35099793 .04899597 .34399415 .05000305 .34399415 .06201172 .34399415 .06802368 .34399415 .07002258 .34799195 .08403015L.40699769 .31729127Z"/>
<path id="font_6_1" d="M.43998719 .22851563C.46099855 .22851563 .46798707 .22851563 .46798707 .25050355 .46798707 .33839417 .4189911 .44628907 .269989 .44628907 .13899231 .44628907 .038986207 .34239198 .038986207 .21949768 .038986207 .092315677 .1499939-.009765625 .2829895-.009765625 .41799928-.009765625 .46798707 .09832764 .46798707 .12036133 .46798707 .12435913 .46598817 .13438416 .45098878 .13438416 .43798829 .13438416 .43598939 .12837219 .43299867 .11836243 .4019928 .037246705 .32598878 .022232056 .2899933 .022232056 .24299622 .022232056 .19799805 .043258668 .16799927 .08131409 .1309967 .12837219 .12998963 .18945313 .12998963 .22851563H.43998719M.1309967 .25450135C.14199829 .39530946 .23199463 .41827394 .269989 .41827394 .3929901 .41827394 .39698792 .27947999 .397995 .25450135H.1309967Z"/>
<path id="font_4_4" d="M.5339966 .3633728C.5339966 .44140626 .4869995 .44239808 .48399354 .44239808 .45799256 .44239808 .42999269 .41540528 .42999269 .38938905 .42999269 .3723755 .43998719 .36437989 .44699098 .35836793 .46398927 .3443756 .48399354 .31835938 .48399354 .27833558 .48399354 .23332215 .41799928 .018234253 .29899598 .018234253 .21798706 .018234253 .21798706 .09025574 .21798706 .10726929 .21798706 .1532898 .23599243 .20930481 .272995 .3023529 .2809906 .32336427 .2869873 .33836366 .2869873 .3553772 .2869873 .4073944 .24299622 .44140626 .19198609 .44140626 .09199524 .44140626 .04699707 .3043518 .04699707 .28834535 .04699707 .27534486 .06098938 .27534486 .06399536 .27534486 .07798767 .27534486 .07899475 .28033448 .08198547 .29135133 .10598755 .37338258 .14898682 .4133911 .18899536 .4133911 .20599365 .4133911 .21398926 .40238954 .21398926 .37838746 .21398926 .3553772 .20599365 .33436585 .19599915 .3113556 .15299988 .20030213 .14199829 .1572876 .14199829 .121276859 .14199829 .022232056 .21998596-.009765625 .29599-.009765625 .46398927-.009765625 .5339966 .28134156 .5339966 .3633728Z"/>
<path id="font_5_1" d="M.6539917 .14129639C.7429962 .22032166 .79100039 .35736085 .79100039 .379364 .79100039 .39337159 .7769928 .39337159 .7709961 .39337159 .7529907 .39337159 .7519989 .3903656 .746994 .3693695 .723999 .28733827 .6769867 .22331238 .651001 .19230652 .647995 .21531677 .647995 .21731568 .6459961 .24632263 .6329956 .39537049 .5139923 .4423828 .42199708 .4423828 .2559967 .4423828 .10699463 .3063507 .10699463 .17129517 .10699463 .07026672 .18798828-.0107421879 .31698609-.0107421879 .3659973-.0107421879 .46499635-.00074768069 .57699587 .07626343 .59399417 .03225708 .6329956-.0107421879 .69699099-.0107421879 .7639923-.0107421879 .8019867 .037261964 .8019867 .060256959 .8019867 .07426453 .78900149 .07426453 .7809906 .07426453 .7689972 .07426453 .7649994 .07426453 .7599945 .061264039 .74598696 .027252198 .70899966 .023254395 .69999697 .023254395 .67900088 .023254395 .6609955 .041259767 .6539917 .14129639M.56799319 .11328125C.5289917 .08526611 .43699647 .023254395 .31999208 .023254395 .2579956 .023254395 .19898987 .054260255 .19898987 .1402893 .19898987 .17329407 .21299744 .2663269 .2630005 .33035279 .29699708 .37236024 .35699464 .40837098 .41999818 .40837098 .5219879 .40837098 .5479889 .3063507 .55599978 .24732971 .5589905 .22631836 .5609894 .17329407 .56799319 .11328125Z"/>
<path id="font_5_4" d="M.62098696 .39237977C.57499697 .3783722 .57499697 .3343506 .57499697 .33335877 .57499697 .3163452 .58699038 .29234315 .6199951 .29234315 .647995 .29234315 .6819916 .3163452 .6819916 .36036683 .6819916 .41937257 .6159973 .4423828 .5629883 .4423828 .49798585 .4423828 .45599366 .40037538 .43598939 .37435914 .40299989 .43138124 .33898927 .4423828 .30299378 .4423828 .17799378 .4423828 .10699463 .32435609 .10699463 .28733827 .10699463 .2733307 .12298584 .2733307 .12799073 .2733307 .13699341 .2733307 .14498902 .27433778 .14898682 .28533937 .1789856 .38336183 .26098634 .40837098 .29899598 .40837098 .33198548 .40837098 .36999513 .39437867 .36999513 .34135438 .36999513 .3163452 .35198976 .24732971 .31799317 .11427307 .30299378 .057266237 .25698854 .023254395 .21398926 .023254395 .20698548 .023254395 .17799378 .023254395 .1539917 .039260866 .19898987 .055267335 .19898987 .09327698 .19898987 .09727478 .19898987 .12628174 .1769867 .13928223 .15499878 .13928223 .12998963 .13928223 .09298706 .119277957 .09298706 .0712738 .09298706 .010253906 .16099549-.0107421879 .21199036-.0107421879 .2669983-.0107421879 .31199647 .021255494 .33599855 .057266237 .37599183-.002746582 .43998719-.0107421879 .47099305-.0107421879 .5970001-.0107421879 .66799929 .10827637 .66799929 .14428711 .66799929 .15829468 .651001 .15829468 .6469879 .15829468 .6299896 .15829468 .6279907 .15229798 .625 .14329529 .59599307 .053253175 .5189972 .023254395 .47499085 .023254395 .44499208 .023254395 .4039917 .03425598 .4039917 .090270999 .4039917 .10227966 .4039917 .10928345 .4119873 .14329529 .42900086 .21331787 .45599366 .32435609 .46398927 .34236146 .47698976 .36836244 .5099945 .40837098 .5609894 .40837098 .56399539 .40837098 .59799197 .40837098 .62098696 .39237977Z"/>
<path id="font_7_1" d="M.6299896 .6989136C.6239929 .70791628 .61898806 .71492007 .61299136 .72190859 .5569916 .6789093 .5029907 .65527346 .44999696 .65527346 .4139862 .65527346 .3889923 .6621094 .33499146 .687912 .2979889 .70591738 .26098634 .72190859 .21899414 .72190859 .1499939 .72190859 .10398865 .68891909 .015991211 .6262665 .021987915 .6172638 .026992798 .61026 .032989503 .6032715 .08898926 .64627078 .14299011 .6699219 .19599915 .6699219 .23199463 .6699219 .25698854 .66308596 .31098939 .63726809 .34799195 .6192627 .3849945 .6032715 .4269867 .6032715 .49598695 .6032715 .5419922 .636261 .6299896 .6989136Z"/>
<path id="font_8_1" d="M.3600006 .46505738C.36099244 .46606446 .36999513 .48506166 .36999513 .50006106 .36999513 .5360565 .33799745 .5590515 .30799867 .5590515 .2669983 .5590515 .2559967 .5280609 .25099183 .5130615L.09700012 .080078128C.09298706 .06808472 .09298706 .065078739 .09298706 .064071658 .09298706 .048080446 .1349945 .038085939 .13598633 .038085939 .14498902 .038085939 .14698792 .04307556 .15299988 .05508423L.3600006 .46505738Z"/>
<path id="font_5_2" d="M.7299957 .56088259C.7299957 .6640625 .6259918 .70606997 .5339966 .70606997 .40699769 .70606997 .27999879 .56788638 .25099183 .45169068L.09399414-.17733765C.09098816-.19033814 .100997928-.19433594 .114990238-.19433594 .12599182-.19433594 .1329956-.19233704 .13598633-.17834473L.19898987 .07521057 .19999695 .07421875C.24099732 .016326905 .29499818-.009674072 .3659973-.009674072 .54100039-.009674072 .69898989 .09817505 .69898989 .23590088 .69898989 .30775453 .6669922 .3536682 .6119995 .39465333 .6619873 .42166139 .7299957 .4807434 .7299957 .56088259M.5039978 .3936615C.48599244 .3896637 .46699525 .38867188 .44799806 .38867188 .43299867 .38867188 .41799928 .3896637 .4039917 .3916626 .42199708 .39665223 .44299317 .3976593 .46199037 .3976593 .47599793 .3976593 .48999024 .39665223 .5039978 .3936615M.6539917 .5779114C.6539917 .51379397 .62098696 .4506836 .5629883 .4166565 .54100039 .42565919 .49198915 .43066407 .46199037 .43066407 .43399049 .43066407 .35398866 .43266297 .35398866 .3896637 .35398866 .36166383 .3880005 .35466004 .44699098 .35466004 .5029907 .35466004 .5249939 .36166383 .5609894 .37165834 .59999087 .3466797 .61499026 .3047638 .61499026 .260849 .61499026 .12112427 .5109863 .024307251 .37399293 .024307251 .29699708 .024307251 .22299195 .0642395 .22299195 .14906311 .22299195 .15805054 .22399903 .17102051 .22698975 .18499756L.2899933 .43566896C.31900025 .5518646 .41999818 .67207339 .5359955 .67207339 .58898928 .67207339 .6539917 .65504458 .6539917 .5779114Z"/>
</defs>
<use data-text="F" xlink:href="#font_1_4" transform="matrix(9.962799,0,0,-9.963197,4.5867769,11.198833)"/>
<use data-text="F" xlink:href="#font_1_4" transform="matrix(9.962799,0,0,-9.963197,47.67064,11.198833)"/>
<use data-text="[" xlink:href="#font_2_3" transform="matrix(9.962799,0,0,-9.963197,55.460786,11.198833)"/>
<use data-text="x" xlink:href="#font_1_6" transform="matrix(9.962799,0,0,-9.963197,58.22885,11.198833)"/>
<use data-text="]" xlink:href="#font_2_4" transform="matrix(9.962799,0,0,-9.963197,63.92296,11.198833)"/>
<use data-text="F" xlink:href="#font_1_4" transform="matrix(9.962799,0,0,-9.963197,103.381748,11.198833)"/>
<use data-text="[" xlink:href="#font_2_3" transform="matrix(9.962799,0,0,-9.963197,111.171939,11.198833)"/>
<use data-text="x" xlink:href="#font_1_6" transform="matrix(9.962799,0,0,-9.963197,113.938968,11.198833)"/>
<use data-text="]" xlink:href="#font_2_4" transform="matrix(9.962799,0,0,-9.963197,119.63309,11.198833)"/>
<use data-text="/" xlink:href="#font_1_3" transform="matrix(9.962799,0,0,-9.963197,122.40115,11.198833)"/>
<use data-text="(" xlink:href="#font_2_1" transform="matrix(9.962799,0,0,-9.963197,127.38223,11.198833)"/>
<use data-text="p" xlink:href="#font_1_5" transform="matrix(9.962799,0,0,-9.963197,131.25733,11.198833)"/>
<use data-text=")" xlink:href="#font_2_2" transform="matrix(9.962799,0,0,-9.963197,136.26941,11.198833)"/>
<use data-text="F" xlink:href="#font_1_4" transform="matrix(9.962799,0,0,-9.963197,176.71022,11.198833)"/>
<use data-text="(" xlink:href="#font_2_1" transform="matrix(9.962799,0,0,-9.963197,184.50038,11.198833)"/>
<use data-text="&#x03b1;" xlink:href="#font_1_1" transform="matrix(9.962799,0,0,-9.963197,188.37545,11.198833)"/>
<use data-text=")" xlink:href="#font_2_2" transform="matrix(9.962799,0,0,-9.963197,194.7856,11.198833)"/>
<use data-text="F" xlink:href="#font_1_4" transform="matrix(9.962799,0,0,-9.963197,3.1887513,46.413946)"/>
<use data-text="&#x2032;" xlink:href="#font_3_1" transform="matrix(6.97394,0,0,-6.9742186,10.978897,42.79773)"/>
<use data-text="F" xlink:href="#font_1_4" transform="matrix(9.962799,0,0,-9.963197,46.27362,46.413946)"/>
<use data-text="&#x2032;" xlink:href="#font_3_1" transform="matrix(6.97394,0,0,-6.9742186,54.063768,42.79773)"/>
<use data-text="[" xlink:href="#font_2_3" transform="matrix(9.962799,0,0,-9.963197,56.858827,46.413946)"/>
<use data-text="x" xlink:href="#font_1_6" transform="matrix(9.962799,0,0,-9.963197,59.626893,46.413946)"/>
<use data-text="]" xlink:href="#font_2_4" transform="matrix(9.962799,0,0,-9.963197,65.321018,46.413946)"/>
<use data-text="F" xlink:href="#font_1_4" transform="matrix(9.962799,0,0,-9.963197,100.586688,46.413946)"/>
<use data-text="&#x2032;" xlink:href="#font_3_1" transform="matrix(6.97394,0,0,-6.9742186,108.37688,42.79773)"/>
<use data-text="[" xlink:href="#font_2_3" transform="matrix(9.962799,0,0,-9.963197,111.17192,46.413946)"/>
<use data-text="x" xlink:href="#font_1_6" transform="matrix(9.962799,0,0,-9.963197,113.93999,46.413946)"/>
<use data-text="]" xlink:href="#font_2_4" transform="matrix(9.962799,0,0,-9.963197,119.6331,46.413946)"/>
<use data-text="/" xlink:href="#font_1_3" transform="matrix(9.962799,0,0,-9.963197,122.40117,46.413946)"/>
<use data-text="(" xlink:href="#font_2_1" transform="matrix(9.962799,0,0,-9.963197,127.38225,46.413946)"/>
<use data-text="p" xlink:href="#font_1_5" transform="matrix(9.962799,0,0,-9.963197,131.25734,46.413946)"/>
<use data-text="&#x2032;" xlink:href="#font_3_1" transform="matrix(6.97394,0,0,-6.9742186,136.26943,42.79773)"/>
<use data-text=")" xlink:href="#font_2_2" transform="matrix(9.962799,0,0,-9.963197,139.0645,46.413946)"/>
<use data-text="F" xlink:href="#font_1_4" transform="matrix(9.962799,0,0,-9.963197,175.4372,46.413946)"/>
<use data-text="&#x2032;" xlink:href="#font_3_1" transform="matrix(6.97394,0,0,-6.9742186,183.22736,42.79773)"/>
<use data-text="(" xlink:href="#font_2_1" transform="matrix(9.962799,0,0,-9.963197,186.0234,46.413946)"/>
<use data-text="&#x03b2;" xlink:href="#font_1_2" transform="matrix(9.962799,0,0,-9.963197,189.89746,46.413946)"/>
<use data-text=")" xlink:href="#font_2_2" transform="matrix(9.962799,0,0,-9.963197,196.0586,46.413946)"/>
<path transform="matrix(1.00002,0,0,-1.00006,101.56273,26.315739)" stroke-width=".39848" stroke-linecap="butt" stroke-miterlimit="10" stroke-linejoin="miter" fill="none" stroke="#000000" d="M-84.69025 17.60663H-58.78154"/>
<path transform="matrix(1.00002,0,0,-1.00006,42.979257,8.708052)" stroke-width=".39848" stroke-linecap="round" stroke-linejoin="round" fill="none" stroke="#000000" d="M-2.07213 2.39091C-1.69356 .95633-.84995 .27893 0 0-.84995-.27893-1.69356-.95633-2.07213-2.39091"/>
<use data-text="i" xlink:href="#font_4_3" transform="matrix(6.97394,0,0,-6.9742186,28.615265,6.3615438)"/>
<path transform="matrix(1.00002,0,0,-1.00006,101.56273,26.315739)" stroke-width=".39848" stroke-linecap="butt" stroke-miterlimit="10" stroke-linejoin="miter" fill="none" stroke="#000000" d="M-93.07861 11.26682V-8.3599"/>
<path transform="matrix(0,1.00006,1.00002,0,8.482254,34.87538)" stroke-width=".39848" stroke-linecap="round" stroke-linejoin="round" fill="none" stroke="#000000" d="M-2.07213 2.39091C-1.69356 .95633-.84995 .27893 0 0-.84995-.27893-1.69356-.95633-2.07213-2.39091"/>
<use data-text="&#x03c3;" xlink:href="#font_4_2" transform="matrix(6.97394,0,0,-6.9742186,1.2687225,26.562754)"/>
<path transform="matrix(1.00002,0,0,-1.00006,101.56273,26.315739)" stroke-width=".39848" stroke-linecap="butt" stroke-miterlimit="10" stroke-linejoin="miter" fill="none" stroke="#000000" d="M-30.37744 17.60663H-3.07117"/>
<path transform="matrix(1.00002,0,0,-1.00006,98.69074,8.708052)" stroke-width=".39848" stroke-linecap="round" stroke-linejoin="round" fill="none" stroke="#000000" d="M-2.07213 2.39091C-1.69356 .95633-.84995 .27893 0 0-.84995-.27893-1.69356-.95633-2.07213-2.39091"/>
<use data-text="&#x03c0;" xlink:href="#font_4_1" transform="matrix(6.97394,0,0,-6.9742186,79.866298,5.359482)"/>
<use data-text="F" xlink:href="#font_5_3" transform="matrix(4.9813997,0,0,-4.9815986,84.52439,6.3615419)"/>
<path transform="matrix(1.00002,0,0,-1.00006,101.56273,26.315739)" stroke-width=".39848" stroke-linecap="butt" stroke-miterlimit="10" stroke-linejoin="miter" fill="none" stroke="#000000" d="M-44.38025 8.77612V-8.3599"/>
<path transform="matrix(0,1.00006,1.00002,0,57.18159,34.87538)" stroke-width=".39848" stroke-linecap="round" stroke-linejoin="round" fill="none" stroke="#000000" d="M-2.07213 2.39091C-1.69356 .95633-.84995 .27893 0 0-.84995-.27893-1.69356-.95633-2.07213-2.39091"/>
<path transform="matrix(1.00002,0,0,-1.00006,101.56273,26.315739)" stroke-width=".39848" stroke-linecap="butt" stroke-miterlimit="10" stroke-linejoin="miter" fill="none" stroke="#000000" d="M43.07567 17.60663H70.2574"/>
<path transform="matrix(1.00002,0,0,-1.00006,172.02077,8.708052)" stroke-width=".39848" stroke-linecap="round" stroke-linejoin="round" fill="none" stroke="#000000" d="M-2.07213 2.39091C-1.69356 .95633-.84995 .27893 0 0-.84995-.27893-1.69356-.95633-2.07213-2.39091"/>
<use data-text="e" xlink:href="#font_6_1" transform="matrix(6.97394,0,0,-6.9742186,152.01674,5.3654825)"/>
<use data-text="v" xlink:href="#font_4_4" transform="matrix(6.97394,0,0,-6.9742186,155.5588,5.3654825)"/>
<use data-text="&#x03b1;" xlink:href="#font_5_1" transform="matrix(4.9813997,0,0,-4.9815986,159.7939,6.3615429)"/>
<path transform="matrix(1.00002,0,0,-1.00006,101.56273,26.315739)" stroke-width=".39848" stroke-linecap="butt" stroke-miterlimit="10" stroke-linejoin="miter" fill="none" stroke="#000000" d="M20.20148 8.77612V-8.3599"/>
<path transform="matrix(0,1.00006,1.00002,0,121.76462,34.87538)" stroke-width=".39848" stroke-linecap="round" stroke-linejoin="round" fill="none" stroke="#000000" d="M-2.07213 2.39091C-1.69356 .95633-.84995 .27893 0 0-.84995-.27893-1.69356-.95633-2.07213-2.39091"/>
<use data-text="&#x03c3;" xlink:href="#font_4_2" transform="matrix(6.97394,0,0,-6.9742186,110.35991,27.3098)"/>
<use data-text="x" xlink:href="#font_5_4" transform="matrix(4.9813997,0,0,-4.9815986,114.976,28.305859)"/>
<path transform="matrix(1.00002,0,0,-1.00006,101.56273,26.315739)" stroke-width=".39848" stroke-linecap="butt" stroke-dasharray="2.78941,1.59395" stroke-miterlimit="10" stroke-linejoin="miter" fill="none" stroke="#000000" d="M86.1237 8.77612V-8.3599"/>
<path transform="matrix(0,1.00006,1.00002,0,187.68816,34.87538)" stroke-width=".39848" stroke-linecap="round" stroke-linejoin="round" fill="none" stroke="#000000" d="M-2.07213 2.39091C-1.69356 .95633-.84995 .27893 0 0-.84995-.27893-1.69356-.95633-2.07213-2.39091"/>
<use data-text="&#xfffd;" xlink:href="#font_7_1" transform="matrix(6.97394,0,0,-6.9742186,190.2125,28.82489)"/>
<use data-text="&#x03c3;" xlink:href="#font_4_2" transform="matrix(6.97394,0,0,-6.9742186,190.0345,28.82489)"/>
<path transform="matrix(1.00002,0,0,-1.00006,101.56273,26.315739)" stroke-width=".39848" stroke-linecap="butt" stroke-miterlimit="10" stroke-linejoin="miter" fill="none" stroke="#000000" d="M-83.2927-17.60663H-60.1791"/>
<path transform="matrix(1.00002,0,0,-1.00006,41.58167,43.923425)" stroke-width=".39848" stroke-linecap="round" stroke-linejoin="round" fill="none" stroke="#000000" d="M-2.07213 2.39091C-1.69356 .95633-.84995 .27893 0 0-.84995-.27893-1.69356-.95633-2.07213-2.39091"/>
<use data-text="i" xlink:href="#font_4_3" transform="matrix(6.97394,0,0,-6.9742186,27.26825,52.04428)"/>
<use data-text="&#x2032;" xlink:href="#font_8_1" transform="matrix(4.9813997,0,0,-4.9815986,30.086289,49.0371)"/>
<path transform="matrix(1.00002,0,0,-1.00006,101.56273,26.315739)" stroke-width=".39848" stroke-linecap="butt" stroke-miterlimit="10" stroke-linejoin="miter" fill="none" stroke="#000000" d="M-28.97989-17.60663H-5.86629"/>
<path transform="matrix(1.00002,0,0,-1.00006,95.89557,43.923425)" stroke-width=".39848" stroke-linecap="round" stroke-linejoin="round" fill="none" stroke="#000000" d="M-2.07213 2.39091C-1.69356 .95633-.84995 .27893 0 0-.84995-.27893-1.69356-.95633-2.07213-2.39091"/>
<use data-text="&#x03c0;" xlink:href="#font_4_1" transform="matrix(6.97394,0,0,-6.9742186,77.81925,49.273115)"/>
<use data-text="F" xlink:href="#font_5_3" transform="matrix(4.9813997,0,0,-4.9815986,82.47735,51.105226)"/>
<use data-text="&#x2032;" xlink:href="#font_8_1" transform="matrix(4.9813997,0,0,-4.9815986,87.663448,49.638135)"/>
<path transform="matrix(1.00002,0,0,-1.00006,101.56273,26.315739)" stroke-width=".39848" stroke-linecap="butt" stroke-miterlimit="10" stroke-linejoin="miter" fill="none" stroke="#000000" d="M45.87077-17.60663H68.98438"/>
<path transform="matrix(1.00002,0,0,-1.00006,170.74774,43.923425)" stroke-width=".39848" stroke-linecap="round" stroke-linejoin="round" fill="none" stroke="#000000" d="M-2.07213 2.39091C-1.69356 .95633-.84995 .27893 0 0-.84995-.27893-1.69356-.95633-2.07213-2.39091"/>
<use data-text="e" xlink:href="#font_6_1" transform="matrix(6.97394,0,0,-6.9742186,152.95575,49.273115)"/>
<use data-text="v" xlink:href="#font_4_4" transform="matrix(6.97394,0,0,-6.9742186,156.49784,49.273115)"/>
<use data-text="&#x03b2;" xlink:href="#font_5_2" transform="matrix(4.9813997,0,0,-4.9815986,160.73291,50.330179)"/>
</svg>
