<svg xmlns="http://www.w3.org/2000/svg" xmlns:xlink="http://www.w3.org/1999/xlink" xmlns:inkscape="http://www.inkscape.org/namespaces/inkscape" version="1.1" width="320" height="140" viewBox="0 0 320 140">
<defs>
<path id="font_1_1" d="M.47799684-.008560181C.61898806 .020431519 .7449951 .13237 .7449951 .3422699 .7449951 .59413149 .56799319 .70410159 .3889923 .70410159 .20599365 .70410159 .032989503 .58914187 .032989503 .34326173 .032989503 .12937927 .16099549 .027435303 .2789917-.0035552979 .32398988-.10656738 .4229889-.17855835 .5469971-.17855835 .5970001-.17855835 .6519928-.16856385 .70399478-.14855957 .7220001-.14155579 .7319946-.13755799 .7319946-.12556458 .7319946-.11355591 .72299197-.107559207 .71499636-.107559207 .71299746-.107559207 .71199038-.107559207 .7049866-.109558109 .6769867-.11656189 .66600039-.11656189 .6499939-.11656189 .55799868-.11656189 .5009918-.058563234 .47799684-.008560181M.25099183 .6411133C.18998719 .57014468 .17399597 .45321656 .17399597 .34326173 .17399597 .24531555 .18598938 .12037659 .2519989 .042419435 .18299866 .06840515 .067993167 .14837647 .067993167 .3422699 .067993167 .54615786 .19198609 .6201172 .25 .6421051L.25099183 .6411133M.5279999 .6421051C.59498599 .61712649 .70999148 .5371704 .70999148 .34326173 .70999148 .13937378 .58599856 .06541443 .526001 .042419435 .58799746 .11538696 .60398867 .23233032 .60398867 .3422699 .60398867 .44021607 .59199526 .565155 .5269928 .6411133L.5279999 .6421051M.3889923 .016433716C.22698975 .016433716 .20899964 .22833252 .20899964 .3422699 .20899964 .46220399 .22898865 .6690979 .3889923 .6690979 .5509949 .6690979 .56900027 .45721437 .56900027 .34326173 .56900027 .22332764 .548996 .016433716 .3889923 .016433716M.32299806-.0135650639C.35099793-.018554688 .3880005-.018554688 .3889923-.018554688 .3939972-.018554688 .4149933-.018554688 .44299317-.015563965 .46998597-.078567508 .5169983-.11656189 .5669861-.13656616 .57699587-.14056397 .5779877-.14056397 .5779877-.14155579 .5779877-.14355469 .55999758-.14355469 .5469971-.14355469 .46199037-.14355469 .375-.1035614 .32299806-.0135650639Z"/>
<path id="font_2_1" d="M.32499696-.24298096C.32499696-.23999024 .32499696-.23799134 .30799867-.22097779 .20799256-.11997986 .1519928 .045013429 .1519928 .24900818 .1519928 .44299317 .19898987 .60998538 .31498719 .7279968 .32499696 .7369995 .32499696 .7389984 .32499696 .74198916 .32499696 .74798586 .31999208 .75 .31599427 .75 .30299378 .75 .22099304 .6779938 .17199707 .5799866 .12098694 .47898866 .09799194 .37199403 .09799194 .24900818 .09799194 .16000366 .11199951 .041015626 .1639862-.06599426 .22299195-.18598938 .30499269-.25097657 .31599427-.25097657 .31999208-.25097657 .32499696-.24897766 .32499696-.24298096Z"/>
<path id="font_3_1" d="M.46299745 .25332643C.46299745 .3503723 .4079895 .44140626 .3019867 .44140626 .17098999 .44140626 .039993287 .2983551 .039993287 .15628052 .039993287 .069244388 .09399414-.009765625 .19599915-.009765625 .2579956-.009765625 .33198548 .014221191 .40299989 .07424927 .4169922 .018234253 .44799806-.009765625 .4909973-.009765625 .54499819-.009765625 .57199099 .04624939 .57199099 .059249879 .57199099 .06825256 .5649872 .06825256 .56199648 .06825256 .55400088 .06825256 .5529938 .06524658 .5499878 .057250978 .54100039 .03224182 .5179901 .010223389 .49398805 .010223389 .46299745 .010223389 .46299745 .07424927 .46299745 .13528443 .5649872 .25732423 .58898928 .38337709 .58898928 .38438417 .58898928 .39338685 .58099368 .39338685 .5779877 .39338685 .56900027 .39338685 .56799319 .39038087 .56399539 .3723755 .5509949 .32835389 .5249939 .25032044 .46299745 .16828919V.25332643M.3999939 .0982666C.31199647 .019226075 .23298645 .010223389 .19799805 .010223389 .1269989 .010223389 .10699463 .07325745 .10699463 .120269779 .10699463 .1632843 .1289978 .26533509 .1599884 .32035829 .20098877 .39038087 .25698854 .42140199 .3019867 .42140199 .39898683 .42140199 .39898683 .29434205 .39898683 .21031189 .39898683 .18530274 .397995 .1592865 .397995 .13427735 .397995 .11427307 .39898683 .10926819 .3999939 .0982666Z"/>
<path id="font_3_3" d="M.19499207-.0040130617C.19499207 .053985597 .17599488 .09700012 .1349945 .09700012 .102996829 .09700012 .08699036 .070999149 .08699036 .04899597 .08699036 .026992798 .101989749 0 .13598633 0 .14898682 0 .1599884 .0039978029 .16899109 .0129852299 .17098999 .01499939 .17199707 .01499939 .17298889 .01499939 .1749878 .01499939 .1749878 .0009918213 .1749878-.0040130617 .1749878-.037078859 .16899109-.10221863 .11099243-.1673584 .099990848-.17936707 .099990848-.18136597 .099990848-.18336487 .099990848-.18836975 .10499573-.19335938 .10998535-.19335938 .117996219-.19335938 .19499207-.119262699 .19499207-.0040130617Z"/>
<path id="font_3_2" d="M.59399417 .3762207C.59399417 .40522767 .58599856 .44223023 .5509949 .44223023 .5309906 .44223023 .5079956 .41722108 .5079956 .39723207 .5079956 .38822938 .5119934 .38223268 .519989 .37322999 .5349884 .3562317 .55400088 .32922364 .55400088 .28222657 .55400088 .24623108 .5319977 .18922425 .5159912 .15823365 .48799134 .10322571 .44198609 .056228639 .3899994 .056228639 .32699586 .056228639 .30299378 .096221927 .2919922 .15222168 .30299378 .17822266 .32598878 .2432251 .32598878 .26922608 .32598878 .28022767 .32199098 .28923036 .30899049 .28923036 .3019867 .28923036 .2939911 .28523255 .2889862 .27722169 .2749939 .25523377 .2619934 .17622376 .2630005 .15522766 .24398804 .1182251 .18998719 .056228639 .12599182 .056228639 .05899048 .056228639 .040985109 .115234378 .040985109 .17222595 .040985109 .27622987 .10598755 .36723329 .12399292 .39222718 .13398743 .40722657 .14099121 .41722108 .14099121 .41923524 .14099121 .42622376 .13699341 .43722535 .12799073 .43722535 .11199951 .43722535 .10699463 .42422486 .09899902 .41223146 .04798889 .33322145 .011993408 .222229 .011993408 .1262207 .011993408 .06422424 .034988405-.009765625 .10998535-.009765625 .19299317-.009765625 .24499512 .06123352 .2659912 .099227908 .27398683 .04322815 .3039856-.009765625 .3769989-.009765625 .45298768-.009765625 .5009918 .05722046 .5369873 .13822937 .5629883 .19622803 .59399417 .32122804 .59399417 .3762207Z"/>
<path id="font_2_2" d="M.28199769 .24900818C.28199769 .32499696 .27198792 .44898988 .21598816 .5649872 .15699768 .68499758 .07499695 .75 .06399536 .75 .05999756 .75 .054992677 .74798586 .054992677 .74198916 .054992677 .7389984 .054992677 .7369995 .07199097 .71998599 .17199707 .61898806 .22799683 .45399476 .22799683 .25 .22799683 .056015016 .18099976-.11099243 .06498718-.22898865 .054992677-.23799134 .054992677-.23999024 .054992677-.24298096 .054992677-.24897766 .05999756-.25097657 .06399536-.25097657 .07699585-.25097657 .15899658-.1789856 .20799256-.08099365 .25898744 .021011353 .28199769 .12901306 .28199769 .24900818Z"/>
<path id="font_4_1" d="M.28199769 .20405579C.2979889 .21907044 .33999635 .2520752 .35598756 .26608277 .41799928 .32312013 .47698976 .3781433 .47698976 .46917726 .47698976 .588089 .3769989 .66503909 .2519989 .66503909 .13198853 .66503909 .052993776 .57411196 .052993776 .48516847 .052993776 .4361725 .09199524 .4291687 .10598755 .4291687 .1269989 .4291687 .1579895 .4441681 .1579895 .48217774 .1579895 .5341797 .10798645 .5341797 .09599304 .5341797 .125 .6070709 .19198609 .6320343 .24099732 .6320343 .33399964 .6320343 .38198854 .55314639 .38198854 .46917726 .38198854 .36514283 .30899049 .28910829 .19099427 .16804505L.06498718 .037994386C.052993776 .026992798 .052993776 .024993897 .052993776 0H.44799806L.47698976 .17904663H.44599916C.44299317 .1590271 .43499757 .10900879 .4229889 .08999634 .4169922 .08198547 .34098817 .08198547 .32499696 .08198547H.14698792L.28199769 .20405579Z"/>
</defs>
<use data-text="Q" xlink:href="#font_1_1" transform="matrix(11.955797,0,0,-11.956157,65.86511,9.9479069)"/>
<use data-text="(" xlink:href="#font_2_1" transform="matrix(11.955797,0,0,-11.956157,75.16461,9.9479069)"/>
<use data-text="&#x03b1;" xlink:href="#font_3_1" transform="matrix(11.955797,0,0,-11.956157,79.71683,9.9479069)"/>
<use data-text="," xlink:href="#font_3_3" transform="matrix(11.955797,0,0,-11.956157,87.22504,9.9479069)"/>
<use data-text="&#x03c9;" xlink:href="#font_3_2" transform="matrix(11.955797,0,0,-11.956157,92.4617,9.9479069)"/>
<use data-text=")" xlink:href="#font_2_2" transform="matrix(11.955797,0,0,-11.956157,100.20187,9.9479069)"/>
<use data-text="Q" xlink:href="#font_1_1" transform="matrix(11.955797,0,0,-11.956157,143.754,52.69333)"/>
<use data-text="(" xlink:href="#font_2_1" transform="matrix(11.955797,0,0,-11.956157,153.05347,52.69333)"/>
<use data-text="&#x03b1;" xlink:href="#font_3_1" transform="matrix(11.955797,0,0,-11.956157,157.60572,52.69333)"/>
<use data-text=")" xlink:href="#font_2_2" transform="matrix(11.955797,0,0,-11.956157,165.12808,52.69333)"/>
<use data-text="Q" xlink:href="#font_1_1" transform="matrix(11.955797,0,0,-11.956157,208.68027,52.69333)"/>
<use data-text="(" xlink:href="#font_2_1" transform="matrix(11.955797,0,0,-11.956157,217.97873,52.69333)"/>
<use data-text="&#x03c9;" xlink:href="#font_3_2" transform="matrix(11.955797,0,0,-11.956157,222.53195,52.69333)"/>
<use data-text="&#x03b1;" xlink:href="#font_3_1" transform="matrix(11.955797,0,0,-11.956157,230.24344,52.69333)"/>
<use data-text=")" xlink:href="#font_2_2" transform="matrix(11.955797,0,0,-11.956157,237.7727,52.69333)"/>
<use data-text="Q" xlink:href="#font_1_1" transform="matrix(11.955797,0,0,-11.956157,281.3249,52.69333)"/>
<use data-text="(" xlink:href="#font_2_1" transform="matrix(11.955797,0,0,-11.956157,290.62336,52.69333)"/>
<use data-text="&#x03c9;" xlink:href="#font_3_2" transform="matrix(11.955797,0,0,-11.956157,295.1756,52.69333)"/>
<use data-text="2" xlink:href="#font_4_1" transform="matrix(7.970498,0,0,-7.9707376,302.89497,48.35498)"/>
<use data-text="&#x03b1;" xlink:href="#font_3_1" transform="matrix(11.955797,0,0,-11.956157,307.6272,52.69333)"/>
<use data-text=")" xlink:href="#font_2_2" transform="matrix(11.955797,0,0,-11.956157,315.14955,52.69333)"/>
<use data-text="Q" xlink:href="#font_1_1" transform="matrix(11.955797,0,0,-11.956157,.7438812,94.93071)"/>
<use data-text="(" xlink:href="#font_2_1" transform="matrix(11.955797,0,0,-11.956157,10.042343,94.93071)"/>
<use data-text="&#x03c9;" xlink:href="#font_3_2" transform="matrix(11.955797,0,0,-11.956157,14.594574,94.93071)"/>
<use data-text=")" xlink:href="#font_2_2" transform="matrix(11.955797,0,0,-11.956157,22.313965,94.93071)"/>
<use data-text="Q" xlink:href="#font_1_1" transform="matrix(11.955797,0,0,-11.956157,80.66086,136.43804)"/>
<path transform="matrix(1.00005,0,0,-1.00008,160.22486,69.7047)" stroke-width=".47818" stroke-linecap="butt" stroke-miterlimit="10" stroke-linejoin="miter" fill="none" stroke="#000000" d="M-57.27692 52.18594-21.13426 30.55647"/>
<path transform="matrix(1.00005,0,0,-1.00008,160.22486,69.7047)" stroke-width=".47818" stroke-linecap="butt" stroke-miterlimit="10" stroke-linejoin="miter" fill="none" stroke="#000000" d="M-50.11375 55.18394 43.10379 26.74931"/>
<path transform="matrix(1.00005,0,0,-1.00008,160.22486,69.7047)" stroke-width=".47818" stroke-linecap="butt" stroke-miterlimit="10" stroke-linejoin="miter" fill="none" stroke="#000000" d="M-50.11375 57.82373 115.74544 24.86716"/>
<path transform="matrix(1.00005,0,0,-1.00008,160.22486,69.7047)" stroke-width=".47818" stroke-linecap="butt" stroke-miterlimit="10" stroke-linejoin="miter" fill="none" stroke="#000000" d="M-83.78947 52.18594-137.53369-11.67816"/>
<path transform="matrix(1.00005,0,0,-1.00008,160.22486,69.7047)" stroke-width=".47818" stroke-linecap="butt" stroke-miterlimit="10" stroke-linejoin="miter" fill="none" stroke="#000000" d="M-12.50406 9.44293-66.5384-53.91283"/>
<path transform="matrix(1.00005,0,0,-1.00008,160.22486,69.7047)" stroke-width=".47818" stroke-linecap="butt" stroke-miterlimit="10" stroke-linejoin="miter" fill="none" stroke="#000000" d="M47.61728 9.44293-64.90831-57.77448"/>
<path transform="matrix(1.00005,0,0,-1.00008,160.22486,69.7047)" stroke-width=".47818" stroke-linecap="butt" stroke-miterlimit="10" stroke-linejoin="miter" fill="none" stroke="#000000" d="M115.74544 10.45612-64.90831-59.85254"/>
<path transform="matrix(1.00005,0,0,-1.00008,160.22486,69.7047)" stroke-width=".47818" stroke-linecap="butt" stroke-miterlimit="10" stroke-linejoin="miter" fill="none" stroke="#000000" d="M-128.23514-32.7917-84.91089-57.93472"/>
</svg>
